<svg xmlns="http://www.w3.org/2000/svg" width="1024" height="1024" viewBox="0 0 1024 1024">
<g>
<path d="M 605.25 720.34 C604.33,719.97 604.00,716.10 604.00,705.85 L 604.00 691.87 L 606.75 692.18 L 609.50 692.50 L 609.78 705.36 C609.81,706.66 609.83,707.87 609.84,708.98 C609.82,708.00 609.80,706.92 609.78,705.75 L 609.50 692.50 L 606.51 692.16 C603.63,691.83 603.59,691.89 605.26,693.74 C607.27,695.96 607.62,701.96 605.75,702.08 C604.75,702.14 604.75,702.26 605.75,702.66 C606.60,703.01 607.00,705.69 607.00,711.08 C607.00,717.52 607.29,719.00 608.53,719.00 C608.82,719.00 609.06,718.90 609.25,718.63 C608.61,721.00 607.39,721.20 605.25,720.34 ZM 579.43 621.57 C579.30,621.52 579.15,621.50 578.98,621.50 C577.87,621.50 577.43,622.99 577.23,627.50 C577.09,630.80 576.56,634.40 576.06,635.50 C575.56,636.60 574.88,642.31 574.55,648.18 C574.36,651.59 574.25,653.95 574.26,655.60 C574.05,652.79 574.00,648.04 574.00,639.89 L 574.00 620.87 L 577.24 621.19 C578.26,621.29 578.97,621.37 579.43,621.57 ZM 607.75 659.92 C607.22,659.61 606.85,659.19 606.58,658.30 L 606.78 646.25 C606.96,635.34 607.26,633.00 608.48,633.00 C609.67,633.00 609.75,633.52 608.90,635.75 C608.23,637.51 608.13,641.38 608.64,646.50 C609.07,650.90 609.45,655.96 609.47,657.75 C609.48,659.54 610.01,661.00 610.63,661.00 C611.30,661.00 611.83,660.80 612.26,660.37 C611.35,661.38 609.89,661.16 607.75,659.92 ZM 621.61 659.42 C621.27,658.55 621.00,649.55 621.00,639.42 L 621.00 621.00 L 624.00 621.00 C624.34,621.00 624.63,621.00 624.90,621.01 C623.43,621.20 623.19,623.44 622.40,640.02 C621.94,649.73 621.69,658.18 621.80,659.78 C621.72,659.67 621.66,659.55 621.61,659.42 ZM 635.71 660.38 C635.32,659.99 635.00,653.43 635.00,645.80 C635.00,634.74 635.29,631.83 636.42,631.39 C636.64,631.31 636.82,631.22 636.94,631.13 C636.84,631.21 636.71,631.28 636.54,631.35 C635.53,631.73 635.44,632.95 636.16,636.67 C636.67,639.33 637.03,645.55 636.95,650.50 C636.88,655.45 636.85,659.87 636.91,660.32 C636.94,660.60 637.35,660.79 637.95,660.85 C636.92,660.86 636.01,660.68 635.71,660.38 ZM 592.08 653.08 C595.82,649.33 595.81,643.95 593.23,640.73 C593.72,641.12 594.00,641.10 594.00,640.62 C594.00,640.41 593.21,639.63 592.25,638.87 C590.66,637.63 590.63,637.66 591.87,639.25 C592.00,639.42 592.13,639.58 592.25,639.72 C591.00,638.65 589.35,638.00 587.40,638.00 C587.23,638.00 587.06,638.00 586.90,638.01 C586.98,637.99 587.05,637.98 587.13,637.96 C591.03,637.24 591.79,637.42 594.17,639.69 C595.64,641.08 597.10,643.25 597.41,644.50 C598.12,647.32 595.64,653.54 593.49,654.37 C592.44,654.77 592.14,654.58 592.61,653.82 C593.01,653.18 592.26,653.41 590.94,654.33 C590.58,654.58 590.21,654.82 589.86,655.04 C590.52,654.53 591.31,653.84 592.08,653.08 ZM 741.74 655.50 C741.18,654.62 740.71,653.63 740.32,652.50 C737.08,643.16 741.91,634.24 750.09,632.53 C747.41,633.13 745.13,634.42 744.26,636.32 C741.99,641.22 741.00,644.20 741.00,646.11 C741.00,647.23 740.55,647.84 739.97,647.48 C739.41,647.13 740.27,648.79 741.89,651.16 C744.93,655.62 745.07,658.06 742.16,655.82 C742.00,655.69 741.86,655.59 741.74,655.50 ZM 816.54 655.24 C815.83,653.84 815.28,652.07 814.81,649.83 C813.80,645.01 813.89,643.90 815.58,640.44 C817.14,637.27 819.31,634.95 821.93,633.60 C818.41,635.96 815.67,641.78 815.86,646.91 C815.95,649.44 816.47,651.65 817.02,651.83 C817.56,652.02 818.00,653.06 818.00,654.14 C818.00,655.23 817.55,655.84 817.00,655.50 C816.82,655.39 816.67,655.30 816.54,655.24 ZM 671.42 621.00 C669.30,621.00 668.93,621.34 669.53,622.75 C670.68,625.46 670.15,629.34 668.49,630.26 C667.67,630.72 667.00,631.77 667.00,632.58 C667.00,633.66 666.63,633.82 665.37,633.19 C666.90,633.95 667.00,633.33 667.00,627.54 L 667.00 621.00 L 671.42 621.00 ZM 802.47 630.30 C802.71,629.75 802.56,629.12 801.95,628.50 C802.29,628.73 802.52,628.83 802.68,628.76 C803.02,628.61 803.00,627.62 803.00,625.39 L 803.00 622.05 C803.96,621.34 805.00,621.00 806.19,621.00 L 809.00 621.00 L 809.14 633.25 C809.16,635.21 809.18,637.02 809.19,638.70 C809.17,636.81 809.15,634.93 809.13,633.18 C809.01,622.02 808.83,620.88 807.25,621.19 C806.13,621.40 805.40,622.59 805.23,624.51 C804.68,630.43 803.94,632.52 802.95,630.95 C802.76,630.65 802.60,630.43 802.47,630.30 ZM 745.22 708.44 C745.08,707.75 745.00,707.07 745.00,706.42 C745.00,701.90 747.47,696.56 750.76,693.97 C750.99,693.80 751.21,693.64 751.45,693.49 C749.57,695.35 747.00,702.24 747.00,705.63 C747.00,706.93 746.55,708.00 746.00,708.00 C745.60,708.00 745.34,708.16 745.22,708.44 ZM 535.52 643.68 C536.46,646.65 539.33,648.19 543.70,647.98 C545.79,647.89 548.06,647.85 548.75,647.90 C550.78,648.06 550.18,650.89 547.50,653.78 L 547.32 653.98 C548.73,651.89 547.07,650.18 542.08,648.53 C537.53,647.02 536.15,646.16 535.52,643.68 ZM 534.32 710.52 C534.48,713.33 535.55,715.39 537.87,717.91 C539.05,719.17 538.97,719.49 537.37,720.12 C536.93,720.30 536.62,720.46 536.46,720.60 C536.11,720.55 535.78,720.47 535.50,720.36 C533.91,719.75 533.78,718.71 534.32,710.52 ZM 510.29 641.27 C510.64,642.62 511.40,644.02 512.62,645.41 C514.63,647.70 516.07,648.34 519.34,648.42 C524.25,648.54 526.13,649.51 525.35,651.53 C525.04,652.33 524.39,652.74 523.90,652.44 C523.40,652.13 523.00,652.54 523.00,653.33 C523.00,654.55 522.24,655.25 520.85,655.43 C522.35,655.20 523.04,654.29 522.80,652.72 C522.61,651.40 521.19,650.24 518.75,649.40 C513.57,647.61 510.88,644.42 510.29,641.27 ZM 785.36 656.17 C784.81,655.42 784.37,654.64 784.13,653.94 C783.21,651.29 782.85,646.28 783.10,643.05 C783.29,644.84 783.93,647.29 785.00,650.00 C787.32,655.87 787.50,657.42 785.75,656.37 C785.58,656.27 785.45,656.20 785.36,656.17 ZM 649.62 656.33 C648.90,655.48 648.26,654.59 647.84,653.80 C647.29,652.76 646.85,651.40 646.55,649.98 C646.60,649.95 646.66,649.84 646.71,649.62 C647.14,647.98 647.43,648.10 649.09,650.62 C651.27,653.93 651.68,657.51 649.75,656.40 C649.70,656.37 649.66,656.35 649.62,656.33 ZM 469.08 712.08 C471.05,710.10 472.06,707.75 472.08,705.44 C472.23,706.36 472.59,707.00 473.00,707.00 C475.74,707.00 472.50,712.78 469.36,713.50 C468.63,713.66 467.52,713.93 466.55,714.18 C467.34,713.65 468.25,712.90 469.08,712.08 ZM 734.00 719.89 C731.23,718.81 729.66,717.39 728.84,714.60 C728.84,714.60 728.85,714.59 728.85,714.59 C729.32,714.30 730.75,715.17 732.03,716.53 C733.30,717.89 735.51,719.03 736.92,719.07 C739.26,719.13 739.31,719.22 737.50,720.00 C736.83,720.29 736.38,720.48 736.17,720.61 C735.52,720.45 734.80,720.21 734.00,719.89 ZM 450.62 702.66 C451.46,699.76 453.26,696.96 456.04,694.62 C457.11,693.72 457.99,693.12 459.01,692.72 C458.25,693.05 457.66,693.52 457.04,694.19 C455.92,695.39 455.00,697.01 455.00,697.78 C455.00,699.99 451.28,704.28 450.67,702.77 C450.65,702.73 450.63,702.69 450.62,702.66 ZM 563.07 637.55 C562.56,638.07 561.96,640.08 561.73,642.00 C561.47,644.19 561.26,643.16 561.16,639.25 C561.03,634.29 561.31,633.00 562.50,633.00 C564.15,633.00 564.54,636.05 563.07,637.55 ZM 751.00 660.83 C748.09,660.31 745.85,659.44 744.12,658.11 C744.72,658.38 745.29,658.44 745.76,658.26 C746.62,657.93 747.07,658.08 746.75,658.59 C746.43,659.11 748.67,659.66 751.83,659.83 C754.93,660.00 757.67,660.33 757.90,660.57 C758.02,660.68 758.11,660.77 758.21,660.84 C755.77,661.56 754.42,661.45 751.00,660.83 ZM 788.38 659.09 C788.18,658.96 787.97,658.82 787.76,658.66 C788.37,658.59 790.88,658.95 793.74,659.54 C797.33,660.27 800.74,660.68 803.41,660.76 C802.28,660.84 801.04,660.89 799.75,660.90 C793.30,660.97 790.82,660.57 788.38,659.09 ZM 652.55 659.06 C651.97,658.68 651.33,658.13 650.70,657.50 C650.75,657.51 650.79,657.51 650.83,657.52 C651.20,657.52 652.17,657.96 653.00,658.49 C653.83,659.02 656.53,659.72 659.00,660.06 C664.00,660.74 668.16,660.87 671.16,660.45 C669.55,661.02 667.01,660.84 663.00,660.90 C657.07,661.00 654.88,660.62 652.55,659.06 ZM 437.54 643.50 C437.51,643.79 437.46,644.04 437.37,644.26 C437.19,642.75 436.37,639.93 435.48,637.52 C435.63,637.61 435.96,637.57 436.45,637.38 C437.92,636.82 438.58,638.16 437.98,640.50 C437.84,641.05 437.64,642.40 437.54,643.50 ZM 740.50 359.65 C740.62,359.68 740.76,359.65 740.92,359.55 C741.59,359.14 742.00,359.87 742.00,361.44 C742.00,362.85 741.66,364.00 741.25,364.00 C740.83,364.00 740.54,366.36 740.60,369.25 C740.66,372.14 740.27,375.06 739.73,375.75 C739.66,375.84 739.55,375.93 739.41,376.02 C739.54,375.93 739.63,375.84 739.69,375.75 C740.14,375.06 740.50,370.00 740.50,364.50 L 740.50 359.65 ZM 435.39 637.29 C434.59,635.17 433.75,633.42 433.29,633.26 C433.09,633.20 432.86,633.28 432.61,633.47 L 434.91 630.79 L 435.55 633.34 C435.90,634.74 435.90,636.36 435.54,636.93 C435.45,637.07 435.40,637.19 435.39,637.29 ZM 415.69 660.30 C415.14,659.42 415.57,656.66 416.25,655.10 C416.27,655.43 416.39,655.79 416.61,656.14 C417.79,658.00 417.76,659.35 416.53,660.29 C415.97,660.72 416.80,660.94 418.40,660.79 C418.68,660.76 418.95,660.72 419.20,660.68 C417.69,661.05 416.12,661.00 415.69,660.30 ZM 561.95 625.91 C562.73,627.36 562.74,628.00 562.00,628.00 C560.79,628.00 559.47,625.20 560.30,624.37 C560.59,624.07 561.34,624.77 561.95,625.91 ZM 606.53 658.11 C606.09,656.39 606.00,653.07 606.00,646.07 C606.00,635.88 606.30,633.03 607.50,632.00 C607.48,632.02 607.47,632.04 607.45,632.06 C606.23,633.41 606.00,636.20 606.25,646.61 L 606.53 658.11 ZM 470.10 711.30 C468.84,713.40 468.86,713.42 470.58,711.77 C471.57,710.82 472.17,709.83 471.90,709.57 C471.64,709.31 470.83,710.08 470.10,711.30 ZM 822.42 659.84 C820.57,659.35 819.16,658.61 818.05,657.43 C818.11,657.49 818.17,657.54 818.23,657.60 C819.70,658.84 820.13,658.97 819.48,657.95 C818.79,656.87 818.97,656.91 820.07,658.10 C820.74,658.81 821.82,659.53 822.76,659.93 C822.65,659.90 822.53,659.87 822.42,659.84 ZM 641.78 647.76 L 641.50 660.50 L 639.96 660.68 C641.45,660.23 641.54,658.59 641.78,647.76 ZM 457.50 718.65 C452.30,715.70 449.79,710.79 450.08,705.77 C450.06,711.19 452.83,716.00 457.50,718.65 ZM 533.44 699.84 C534.62,701.28 534.97,703.59 534.52,706.83 C534.51,706.90 534.50,706.98 534.49,707.05 C534.59,703.42 534.32,701.18 533.44,699.84 ZM 546.08 655.32 L 545.01 656.47 L 540.19 654.76 C544.06,656.13 544.91,656.31 546.08,655.32 ZM 467.81 698.01 C465.57,696.55 463.48,696.88 460.80,698.94 C462.09,697.75 463.61,697.00 465.18,697.00 C465.99,697.00 466.91,697.39 467.81,698.01 ZM 742.76 716.12 C743.33,717.18 742.96,718.55 741.42,719.68 C740.58,720.30 739.78,720.67 738.90,720.81 C741.29,720.31 743.21,718.34 742.84,716.43 C742.82,716.33 742.79,716.22 742.76,716.12 ZM 582.65 639.49 C581.97,640.24 581.55,641.32 581.34,642.82 C581.45,641.49 581.64,640.50 581.87,640.14 C582.00,639.93 582.27,639.71 582.65,639.49 ZM 539.77 720.17 C540.79,719.03 540.99,716.44 540.98,710.93 C540.99,717.63 540.82,719.45 539.77,720.17 ZM 673.76 655.15 C673.90,652.29 673.92,647.78 673.95,640.63 C673.92,647.59 674.01,652.16 673.76,655.15 ZM 791.32 633.07 C792.87,632.48 795.85,632.00 797.96,632.00 C799.85,632.00 801.25,631.57 801.99,630.93 C801.77,631.61 800.34,632.00 798.07,632.00 C795.90,632.00 792.87,632.48 791.32,633.07 ZM 646.13 647.20 C645.88,644.40 646.18,642.00 647.17,642.00 C646.43,642.00 646.04,643.73 646.12,646.75 C646.12,646.90 646.12,647.05 646.13,647.20 ZM 581.40 651.17 C581.61,653.26 582.02,654.24 583.30,654.83 C581.97,654.42 581.60,653.76 581.40,651.17 ZM 763.57 655.67 C763.02,655.04 761.98,654.65 760.50,654.80 C762.38,654.61 763.19,654.79 763.57,655.67 ZM 753.31 719.53 C751.56,718.77 749.80,717.15 748.35,715.17 C749.88,717.10 751.71,718.84 753.31,719.53 ZM 460.84 713.45 C459.26,712.56 457.90,711.25 457.47,709.92 C457.83,711.05 459.24,712.42 460.84,713.45 ZM 580.15 630.66 C579.99,629.47 580.00,627.84 580.16,625.73 C580.34,623.24 580.20,622.06 579.61,621.67 C580.39,622.13 580.35,623.14 580.16,625.73 C580.01,627.84 579.99,629.47 580.15,630.66 ZM 541.27 632.57 C540.57,632.77 539.90,633.03 539.25,633.37 C538.55,633.73 537.96,634.10 537.45,634.50 C538.44,633.60 539.73,632.95 541.27,632.57 ZM 836.49 634.99 C835.15,633.75 832.99,632.87 830.67,632.44 C833.15,632.85 835.13,633.71 836.46,634.96 C836.47,634.97 836.48,634.98 836.49,634.99 ZM 421.12 659.94 C421.74,659.49 422.24,658.81 422.75,657.79 C422.52,658.29 422.31,658.71 422.15,659.00 C421.95,659.35 421.59,659.66 421.12,659.94 ZM 624.60 660.97 C625.80,660.88 627.00,660.45 627.28,659.72 C626.94,660.59 625.79,660.99 624.60,660.97 ZM 626.31 621.34 C626.96,621.80 627.03,622.84 627.06,625.25 C627.03,622.96 626.86,621.84 626.31,621.34 ZM 423.46 637.96 C423.67,637.70 423.68,637.29 423.44,636.91 C423.13,636.40 423.58,635.28 424.44,634.42 C423.58,635.28 423.15,636.44 423.50,636.99 C423.78,637.45 423.75,637.84 423.46,637.96 ZM 800.79 627.64 C799.97,627.11 799.62,626.79 799.78,626.21 C799.71,626.71 800.05,627.07 800.79,627.64 ZM 800.71 624.61 C800.88,624.37 801.08,624.11 801.29,623.82 C801.61,623.39 801.94,623.01 802.27,622.67 L 801.11 624.11 C800.97,624.29 800.84,624.45 800.71,624.61 ZM 608.41 629.97 C608.25,629.55 607.93,629.02 607.46,628.30 C607.31,628.07 607.17,627.84 607.04,627.61 C607.16,627.80 607.28,627.99 607.41,628.18 C607.97,628.97 608.30,629.51 608.41,629.97 ZM 829.80 660.89 C833.01,660.91 835.64,660.30 837.09,659.11 C835.60,660.32 832.97,660.93 829.80,660.89 ZM 430.47 645.75 C429.47,645.63 428.74,645.39 428.55,645.07 C428.54,645.06 428.53,645.04 428.52,645.02 C428.75,645.34 429.50,645.59 430.47,645.75 ZM 535.16 639.16 C535.10,639.93 535.11,640.80 535.18,641.80 C535.07,640.86 535.07,639.98 535.16,639.16 ZM 457.30 705.36 C457.01,706.95 457.04,708.57 457.47,709.92 C457.02,708.48 456.99,706.90 457.30,705.36 ZM 606.27 623.37 C606.64,622.18 607.66,621.37 609.25,621.18 C607.68,621.36 606.66,622.19 606.27,623.37 ZM 762.82 659.01 C763.18,658.71 763.45,658.39 763.65,658.06 C763.49,658.42 763.21,658.73 762.82,659.01 ZM 764.80 642.00 C765.65,644.79 766.00,647.40 765.32,648.08 C766.00,647.40 765.64,644.79 764.80,642.00 ZM 587.44 655.75 C587.69,655.79 587.94,655.83 588.21,655.86 C588.13,655.88 588.07,655.89 588.03,655.88 C587.94,655.86 587.73,655.82 587.44,655.75 ZM 840.01 642.17 C840.75,644.70 841.07,647.08 840.53,647.95 C841.06,647.09 840.75,644.70 840.01,642.17 ZM 471.99 704.13 C471.91,703.66 471.79,703.19 471.63,702.73 C471.82,703.21 471.94,703.69 471.99,704.13 ZM 808.99 658.57 C808.90,659.16 808.80,659.50 808.67,659.73 C808.78,659.47 808.89,659.07 808.99,658.57 ZM 523.32 632.62 C521.47,632.23 519.74,632.14 518.19,632.30 C519.71,632.14 521.43,632.23 523.32,632.62 ZM 420.88 642.45 C421.21,641.67 421.53,640.95 421.82,640.33 C421.53,640.96 421.21,641.68 420.88,642.45 ZM 528.42 698.00 C528.45,698.00 528.47,698.00 528.50,698.00 C528.70,698.00 528.90,698.00 529.08,698.01 C528.87,698.01 528.65,698.00 528.42,698.00 ZM 761.04 634.53 C760.98,634.49 760.93,634.44 760.87,634.39 C760.92,634.43 760.96,634.47 761.01,634.51 C761.02,634.52 761.03,634.52 761.04,634.53 Z" fill="rgba(0,0,0,1)"/>
<path d="M 522.50 580.22 C519.75,579.32 516.63,577.77 515.56,576.79 C514.50,575.80 513.29,575.00 512.89,575.00 C512.13,575.00 506.11,569.27 506.03,568.47 C505.88,567.09 501.49,559.00 500.89,559.00 C500.51,559.00 500.42,558.10 500.71,557.00 C501.00,555.90 500.79,555.00 500.26,555.00 C499.72,555.00 499.49,553.88 499.76,552.50 C500.03,551.04 499.77,550.00 499.12,550.00 C498.40,550.00 498.00,547.49 498.00,543.00 C498.00,538.91 498.42,536.00 499.02,536.00 C499.58,536.00 499.84,534.88 499.59,533.50 C499.34,532.12 499.60,531.00 500.17,531.00 C500.75,531.00 500.95,530.33 500.64,529.50 C500.32,528.67 500.55,528.00 501.14,528.00 C501.73,528.00 501.95,527.33 501.64,526.50 C501.32,525.67 501.53,525.00 502.09,525.00 C502.66,525.00 502.84,524.55 502.50,524.00 C502.16,523.45 502.39,523.00 503.00,523.00 C503.61,523.00 503.84,522.55 503.50,522.00 C503.16,521.45 503.36,521.00 503.94,521.00 C504.52,521.00 505.00,520.50 505.00,519.89 C505.00,517.69 514.15,509.82 519.77,507.19 C524.66,504.89 526.82,504.50 534.50,504.50 C542.09,504.50 544.06,504.85 547.12,506.75 C549.11,507.99 551.58,509.00 552.62,509.00 C554.40,509.00 554.48,508.09 554.20,491.99 L 553.91 474.99 L 556.52 473.99 C557.96,473.45 562.03,473.00 565.58,473.00 L 572.03 473.00 L 571.50 580.50 L 565.54 580.81 C558.52,581.17 555.00,579.67 555.00,576.33 C555.00,575.05 554.55,574.00 554.00,574.00 C553.45,574.00 553.00,574.43 553.00,574.96 C553.00,575.49 550.19,577.29 546.76,578.96 C539.45,582.53 530.83,582.98 522.50,580.22 ZM 637.00 454.34 C630.81,453.74 620.88,448.12 616.50,442.75 C614.30,440.05 611.83,437.13 611.00,436.25 C610.17,435.36 609.60,434.39 609.72,434.07 C610.14,433.00 608.75,426.00 608.12,426.00 C606.60,426.00 608.25,401.00 610.00,397.50 C610.14,397.23 610.31,396.53 610.38,395.96 C610.44,395.39 611.17,394.50 612.00,393.98 C612.83,393.46 613.08,393.02 612.56,393.02 C612.04,393.01 612.49,392.34 613.56,391.53 C614.63,390.72 615.07,390.05 614.55,390.03 C613.38,389.99 620.06,383.00 621.27,383.00 C621.75,383.00 622.79,382.36 623.57,381.57 C624.36,380.79 627.59,379.17 630.75,377.99 C638.66,375.02 651.35,375.40 655.88,378.75 C660.95,382.50 662.00,381.86 662.00,375.00 C662.00,371.70 662.44,369.00 662.99,369.00 C663.53,369.00 663.91,368.21 663.83,367.25 C663.75,366.29 663.75,360.66 663.84,354.75 L 664.00 344.00 L 679.69 344.00 L 679.87 397.25 C679.97,426.54 679.66,451.09 679.18,451.80 C678.59,452.70 676.37,453.01 672.02,452.80 C665.98,452.51 665.65,452.36 663.86,449.02 C662.84,447.10 662.00,446.08 662.00,446.75 C662.00,447.42 659.41,449.26 656.25,450.85 C650.50,453.72 643.58,454.98 637.00,454.34 ZM 418.33 450.50 C418.28,448.58 418.66,447.00 419.18,447.00 C419.69,447.00 419.84,446.55 419.50,446.00 C419.16,445.45 419.39,445.00 420.00,445.00 C420.61,445.00 420.84,444.55 420.50,444.00 C420.16,443.45 420.34,443.00 420.91,443.00 C421.47,443.00 421.68,442.33 421.36,441.50 C421.05,440.67 421.31,440.00 421.95,440.00 C422.59,440.00 422.84,439.55 422.50,439.00 C422.16,438.45 422.41,438.00 423.05,438.00 C423.69,438.00 423.95,437.33 423.64,436.50 C423.32,435.67 423.50,435.00 424.03,435.00 C424.56,435.00 424.95,434.66 424.88,434.25 C424.82,433.84 424.85,433.27 424.96,433.00 C425.06,432.73 425.35,431.38 425.60,430.00 C425.85,428.62 426.50,427.35 427.04,427.16 C427.57,426.98 427.76,426.42 427.45,425.91 C427.14,425.41 427.39,425.00 428.00,425.00 C428.61,425.00 428.83,424.53 428.47,423.96 C428.12,423.38 428.55,421.81 429.44,420.46 C430.32,419.11 430.70,417.99 430.27,417.98 C429.85,417.98 430.02,417.64 430.65,417.23 C431.28,416.83 431.96,415.60 432.15,414.50 C432.34,413.40 432.86,412.23 433.30,411.91 C433.74,411.59 434.17,410.35 434.26,409.16 C434.35,407.97 434.83,407.00 435.32,407.00 C435.81,407.00 435.95,406.33 435.64,405.50 C435.32,404.67 435.53,404.00 436.09,404.00 C436.66,404.00 436.86,403.58 436.54,403.07 C436.23,402.56 436.43,401.85 437.00,401.50 C437.57,401.15 437.77,400.44 437.46,399.93 C437.14,399.42 437.36,399.00 437.94,399.00 C438.52,399.00 438.95,398.66 438.88,398.25 C438.82,397.84 438.85,397.27 438.96,397.00 C439.06,396.73 439.35,395.38 439.60,394.00 C439.85,392.62 440.50,391.35 441.04,391.16 C441.57,390.98 441.76,390.42 441.45,389.91 C441.14,389.41 441.34,389.00 441.91,389.00 C442.47,389.00 442.68,388.33 442.36,387.50 C442.05,386.67 442.31,386.00 442.95,386.00 C443.59,386.00 443.84,385.55 443.50,385.00 C443.16,384.45 443.40,384.00 444.02,384.00 C444.65,384.00 444.98,383.44 444.75,382.76 C444.53,382.08 444.96,380.89 445.73,380.13 C446.49,379.37 446.88,378.13 446.59,377.37 C446.30,376.62 446.48,376.00 447.00,376.00 C447.52,376.00 447.68,375.33 447.36,374.50 C447.05,373.67 447.31,373.00 447.95,373.00 C448.59,373.00 448.84,372.55 448.50,372.00 C448.16,371.45 448.41,371.00 449.05,371.00 C449.69,371.00 449.95,370.33 449.64,369.50 C449.32,368.67 449.53,368.00 450.09,368.00 C450.66,368.00 450.84,367.55 450.50,367.00 C450.16,366.45 450.41,366.00 451.05,366.00 C451.69,366.00 451.95,365.33 451.64,364.50 C451.32,363.67 451.53,363.00 452.09,363.00 C452.66,363.00 452.85,362.57 452.53,362.05 C452.21,361.52 453.37,357.70 455.11,353.55 L 458.28 346.00 L 478.77 346.00 L 480.37 349.37 C480.60,349.86 481.03,350.88 481.61,352.31 C479.72,348.12 478.36,346.29 477.63,347.06 C477.05,347.68 509.20,432.11 515.60,446.75 C516.86,449.64 518.07,452.00 518.28,452.00 C519.28,452.00 518.27,447.09 516.35,442.03 C516.59,442.62 516.79,443.09 516.94,443.44 C518.13,446.16 518.96,449.54 518.80,450.94 C518.51,453.43 518.26,453.51 510.29,453.79 C503.24,454.04 501.80,453.80 500.12,452.12 C499.05,451.05 498.37,449.97 498.61,449.72 C498.85,449.48 497.38,444.75 495.33,439.21 C492.55,431.68 491.09,428.99 489.56,428.58 C486.47,427.75 447.66,427.92 446.44,428.77 C445.86,429.17 443.67,434.45 441.57,440.50 C439.47,446.55 437.30,452.06 436.75,452.75 C436.09,453.58 432.82,454.00 427.09,454.00 L 418.42 454.00 ZM 263.50 512.00 C263.84,511.45 263.61,511.00 262.99,511.00 C261.44,511.00 261.87,369.84 263.43,368.77 C264.02,368.36 272.04,368.02 281.25,368.02 L 298.00 368.00 L 298.00 494.88 L 292.25 499.23 C284.04,505.44 281.73,506.79 273.67,510.07 C266.37,513.05 262.39,513.80 263.50,512.00 ZM 421.84 579.75 C421.76,579.06 421.62,555.66 421.54,527.74 L 421.40 476.97 L 453.77 477.24 L 486.14 477.50 L 486.51 483.50 C486.72,486.80 486.64,490.51 486.34,491.75 L 485.78 494.00 L 462.89 494.00 C445.28,494.00 439.99,494.29 439.94,495.25 C439.58,502.26 439.49,518.77 439.81,519.75 C440.11,520.70 445.18,521.00 460.61,521.00 L 481.00 521.00 L 481.00 536.00 L 461.20 536.00 C447.13,536.00 441.05,536.35 440.20,537.20 C438.93,538.47 438.45,560.40 439.62,563.46 C440.18,564.90 442.89,565.07 463.69,564.94 C476.58,564.87 487.29,564.96 487.49,565.16 C488.25,565.91 488.39,578.56 487.66,579.75 C487.06,580.71 479.31,581.00 454.44,581.00 C429.24,581.00 421.97,580.72 421.84,579.75 ZM 226.98 517.06 C223.94,516.65 220.45,515.78 219.23,515.12 L 217.00 513.93 L 217.02 459.71 C217.02,429.90 217.39,404.93 217.84,404.22 C218.45,403.26 222.60,403.02 235.07,403.22 L 251.50 403.50 L 252.13 410.00 C252.98,418.67 253.17,505.46 252.36,511.38 C251.86,515.04 251.27,516.12 249.61,516.47 C244.96,517.42 232.18,517.76 226.98,517.06 ZM 755.45 580.52 C751.08,579.14 742.72,571.51 742.16,568.39 C741.97,567.35 741.52,566.39 741.16,566.25 C740.31,565.93 740.57,554.51 741.45,553.08 C741.82,552.49 741.84,551.55 741.50,551.00 C741.16,550.45 741.36,550.00 741.94,550.00 C742.52,550.00 742.89,549.62 742.75,549.15 C742.20,547.26 751.03,540.13 756.42,538.12 C761.07,536.38 764.29,536.00 774.59,536.00 L 787.11 536.00 L 786.81 530.47 C786.53,525.29 786.25,524.75 782.59,522.22 C776.89,518.27 767.36,518.50 757.25,522.81 C751.66,525.20 750.00,525.58 750.00,524.46 C750.00,523.65 749.52,523.00 748.94,523.00 C748.36,523.00 748.14,522.58 748.46,522.07 C748.77,521.56 748.58,520.86 748.02,520.51 C747.46,520.16 747.00,519.01 747.00,517.94 C747.00,516.87 746.59,516.00 746.09,516.00 C745.60,516.00 745.44,515.05 745.74,513.89 C747.04,508.90 766.57,503.12 777.94,504.36 C782.37,504.85 785.49,505.44 788.14,506.47 C787.57,506.39 787.13,506.47 786.84,506.76 C786.24,507.36 787.01,508.18 788.92,508.97 C793.26,510.77 799.71,518.17 800.85,522.66 C801.38,524.77 802.02,538.03 802.27,552.12 C802.52,566.21 803.12,578.36 803.61,579.12 C803.99,579.71 804.28,579.60 804.50,578.51 L 804.50 580.50 L 798.54 580.81 C791.52,581.17 788.00,579.67 788.00,576.33 C788.00,573.49 786.88,573.36 784.56,575.94 C783.60,577.00 780.83,578.80 778.41,579.94 C773.30,582.34 762.10,582.62 755.45,580.52 ZM 550.00 454.33 C548.62,454.12 544.99,452.98 541.92,451.80 C537.56,450.14 535.55,448.60 532.70,444.75 C530.70,442.04 528.77,438.29 528.42,436.41 C528.07,434.54 527.49,433.00 527.14,433.00 C526.79,433.00 526.50,420.51 526.50,405.25 L 526.50 377.50 L 529.00 377.63 C530.38,377.70 534.20,377.82 537.50,377.88 L 543.50 378.00 L 543.22 403.64 C542.94,428.80 542.97,429.34 545.18,432.55 C548.02,436.70 552.80,439.00 558.57,439.00 C563.75,439.00 568.84,436.63 574.30,431.68 L 578.09 428.24 L 577.95 402.87 L 577.80 377.50 L 585.24 377.21 C590.70,377.00 593.00,377.30 593.86,378.33 C594.61,379.23 594.89,387.25 594.81,407.44 C594.81,405.40 594.80,403.19 594.78,400.81 C594.57,379.29 594.54,379.03 594.06,393.50 L 593.55 408.50 L 592.99 393.50 C592.52,381.10 592.41,383.00 592.38,404.50 C592.36,418.80 592.52,428.58 592.73,426.23 C592.94,423.88 593.54,422.22 594.06,422.54 C594.47,422.79 594.73,418.70 594.80,411.42 C594.79,413.08 594.78,414.81 594.76,416.62 L 594.50 453.50 L 587.39 453.79 C580.33,454.08 580.27,454.06 579.04,451.10 C578.36,449.46 578.10,447.64 578.46,447.06 C579.64,445.15 577.52,445.94 572.08,449.45 C565.03,453.99 557.87,455.58 550.00,454.33 ZM 606.50 581.33 C602.84,580.52 599.00,578.77 599.00,577.90 C599.00,577.44 597.64,576.35 595.97,575.48 C594.30,574.62 593.18,573.51 593.48,573.03 C593.79,572.54 593.13,571.50 592.02,570.73 C590.92,569.95 590.31,569.02 590.67,568.66 C591.04,568.30 590.82,568.00 590.20,568.00 C589.57,568.00 589.32,567.33 589.64,566.50 C589.95,565.67 589.78,565.00 589.25,565.00 C588.71,565.00 588.49,563.88 588.76,562.50 C589.04,561.03 588.77,560.00 588.11,560.00 C586.68,560.00 587.29,508.31 588.73,506.87 C589.26,506.34 593.03,506.04 597.10,506.20 L 604.50 506.50 L 604.58 510.69 C604.35,508.08 604.06,507.00 603.69,507.00 C602.76,507.00 602.54,512.80 602.77,531.75 C602.94,545.36 603.28,557.46 603.53,558.63 C603.78,559.81 605.29,562.17 606.90,563.89 C608.76,565.89 610.38,566.79 611.41,566.40 C612.06,566.15 612.62,565.81 612.87,565.54 C614.90,566.44 617.13,567.00 619.10,567.00 C623.20,567.00 630.19,563.98 632.32,561.30 C633.33,560.03 634.78,559.00 635.55,559.00 C637.87,559.00 638.14,555.47 637.82,529.67 L 637.50 505.00 L 646.21 505.00 L 654.93 505.00 L 655.21 541.25 C655.37,561.19 655.15,578.29 654.71,579.25 C654.08,580.67 652.65,581.00 647.21,580.98 C638.87,580.97 637.57,580.24 638.47,576.12 C639.31,572.31 638.17,572.14 634.18,575.50 C628.80,580.03 623.12,581.96 615.50,581.86 C611.65,581.81 607.60,581.57 606.50,581.33 ZM 692.80 580.45 C689.67,579.69 686.11,578.27 684.90,577.29 C680.64,573.84 671.98,566.00 672.43,566.00 C672.68,566.00 671.85,563.64 670.59,560.75 C669.32,557.86 667.95,553.70 667.54,551.50 C666.46,545.71 666.35,536.00 667.37,536.00 C667.84,536.00 668.02,534.88 667.76,533.50 C667.49,532.12 667.71,531.00 668.25,531.00 C668.78,531.00 668.96,530.34 668.65,529.53 C668.34,528.72 668.53,527.79 669.06,527.46 C669.59,527.13 669.77,526.44 669.46,525.93 C669.14,525.42 669.39,525.00 670.00,525.00 C670.61,525.00 670.84,524.55 670.50,524.00 C670.16,523.45 670.36,523.00 670.94,523.00 C671.52,523.00 672.00,522.49 672.00,521.87 C672.00,520.29 681.17,511.00 682.72,511.00 C683.43,511.00 684.00,510.62 684.00,510.15 C684.00,509.03 690.31,506.33 696.33,504.88 C706.08,502.54 723.70,505.70 730.19,510.95 L 732.45 512.79 L 728.33 518.64 C723.90,524.93 721.90,526.05 719.46,523.60 C717.37,521.51 710.50,519.71 705.00,519.81 C696.60,519.95 689.77,524.52 686.59,532.13 C684.46,537.23 683.70,550.50 685.46,551.96 C686.20,552.58 687.10,554.27 687.47,555.73 C688.19,558.60 690.43,560.86 695.96,564.29 C702.71,568.48 714.07,566.82 720.80,560.66 L 723.11 558.55 L 724.36 559.96 C723.25,559.08 722.60,559.06 721.97,559.82 C721.43,560.46 721.27,560.78 721.63,560.52 C721.98,560.27 724.33,562.74 726.84,566.03 C730.04,570.21 731.72,571.67 732.45,570.93 C732.59,570.79 732.68,570.63 732.71,570.45 C732.87,570.78 732.95,571.05 732.96,571.24 C733.01,573.46 726.96,577.46 719.71,580.01 C713.01,582.37 701.48,582.55 692.80,580.45 ZM 757.00 453.30 C748.57,450.25 744.64,446.68 742.90,440.50 C742.28,438.30 741.58,435.85 741.34,435.06 C741.11,434.26 740.82,424.14 740.71,412.56 L 740.50 391.50 L 736.00 391.19 C733.53,391.01 731.09,390.47 730.59,389.98 C730.09,389.49 729.64,386.36 729.59,383.04 L 729.50 377.00 L 734.13 377.00 C736.67,377.00 739.20,376.44 739.73,375.75 C740.27,375.06 740.66,372.14 740.60,369.25 C740.54,366.36 740.83,364.00 741.25,364.00 C741.66,364.00 742.00,362.85 742.00,361.44 C742.00,359.87 741.59,359.14 740.92,359.55 C740.23,359.98 739.96,359.21 740.17,357.36 L 740.50 354.50 L 757.50 354.50 L 757.55 356.08 C757.32,355.27 756.98,355.00 756.50,355.00 C755.26,355.00 755.00,356.86 755.00,365.78 L 755.00 376.56 L 757.71 376.79 C759.82,376.96 760.15,376.75 759.21,375.81 C758.68,375.28 758.32,373.35 758.14,370.23 C758.41,373.11 758.79,375.25 759.16,375.69 C759.91,376.60 763.13,377.00 769.62,377.00 L 779.00 377.00 L 779.00 383.94 C779.00,387.90 778.53,391.17 777.90,391.56 C777.30,391.93 772.64,392.17 767.54,392.08 L 758.27 391.92 L 757.65 395.71 C757.30,397.80 757.02,407.06 757.01,416.30 L 757.00 433.10 L 759.62 435.53 C762.80,438.47 767.46,439.46 774.03,438.59 C778.69,437.97 778.98,438.07 779.58,440.47 C779.93,441.86 779.93,443.73 779.59,444.62 C779.25,445.52 779.46,446.85 780.07,447.58 C781.63,449.46 780.33,452.68 777.72,453.38 C775.00,454.11 759.07,454.05 757.00,453.30 ZM 202.00 510.03 C201.18,509.55 197.46,507.90 193.75,506.36 C190.04,504.81 185.99,502.62 184.75,501.48 C183.51,500.33 181.71,499.10 180.75,498.73 C179.79,498.36 179.00,497.60 179.00,497.03 C179.00,496.46 178.36,496.00 177.57,496.00 C176.79,496.00 175.29,494.92 174.25,493.59 C172.49,491.35 172.36,489.19 172.43,462.34 L 172.50 433.50 L 175.34 433.50 L 188.50 433.75 L 204.50 434.05 L 204.23 471.52 C204.04,496.60 204.29,509.00 204.98,509.00 C205.66,509.00 206.00,496.25 206.00,471.00 L 206.00 433.50 L 206.50 433.50 L 206.50 471.99 C206.50,505.43 206.30,510.50 205.00,510.69 C204.18,510.81 202.82,510.51 202.00,510.03 ZM 652.10 437.84 C653.97,437.20 655.86,436.08 656.30,435.34 C656.74,434.60 657.68,434.00 658.39,434.00 C660.07,434.00 663.21,430.54 662.34,429.67 C661.97,429.30 662.19,429.00 662.83,429.00 C663.67,429.00 664.00,424.88 664.00,414.50 C664.00,404.96 663.64,400.00 662.94,400.00 C662.36,400.00 662.12,399.61 662.42,399.13 C663.75,396.98 654.70,392.14 647.76,391.30 C638.61,390.19 629.44,396.14 627.06,404.72 C624.47,414.04 626.70,429.49 631.24,433.75 C636.36,438.56 645.02,440.26 652.10,437.84 ZM 544.21 565.30 C546.56,564.36 549.60,562.25 550.99,560.61 C553.38,557.77 553.52,556.88 554.00,541.98 C554.42,528.92 554.25,526.07 552.99,524.75 C550.74,522.38 541.44,519.00 537.17,519.00 C531.84,519.00 525.02,522.78 521.67,527.61 C519.27,531.07 518.69,533.20 517.98,541.11 C517.21,549.70 517.33,550.88 519.32,554.97 C524.34,565.27 534.13,569.33 544.21,565.30 ZM 700.75 451.75 C699.52,449.87 699.28,443.72 699.27,415.00 C699.27,393.79 699.65,380.02 700.26,379.25 C700.91,378.43 704.10,378.00 709.57,378.00 L 717.89 378.00 L 717.62 415.08 C717.40,445.94 717.12,452.31 715.93,453.06 C715.14,453.56 711.74,453.98 708.36,453.98 C703.09,454.00 702.02,453.68 700.75,451.75 ZM 714.50 658.53 C711.75,657.18 709.82,656.05 710.21,656.03 C710.59,656.01 710.24,654.11 709.43,651.79 C707.88,647.40 707.77,640.00 709.25,640.00 C709.73,640.00 709.87,639.59 709.56,639.09 C708.81,637.89 714.49,633.17 717.64,632.38 C719.00,632.03 721.89,631.99 724.06,632.28 L 728.00 632.81 L 728.00 628.10 C728.00,622.89 729.25,621.00 732.71,621.00 L 735.02 621.00 L 734.79 640.50 C734.63,653.99 734.87,658.55 732.82,660.10 C731.53,661.09 729.31,660.86 725.50,660.92 C721.00,660.98 718.25,660.39 714.50,658.53 ZM 483.39 411.78 C484.46,410.78 484.17,409.10 481.78,402.53 C480.17,398.11 478.46,394.36 477.98,394.19 C477.50,394.01 477.36,393.22 477.66,392.44 C477.97,391.65 477.73,391.00 477.14,391.00 C476.55,391.00 476.32,390.33 476.64,389.50 C476.96,388.67 476.67,388.00 476.00,388.00 C475.33,388.00 475.03,387.35 475.34,386.56 C475.64,385.78 475.48,384.99 474.97,384.81 C474.47,384.64 473.85,383.38 473.60,382.00 C473.35,380.62 473.06,379.39 472.95,379.25 C472.84,379.11 472.69,378.66 472.61,378.25 C472.23,376.16 469.66,371.00 469.00,371.00 C468.59,371.00 467.82,371.56 467.31,372.25 C466.19,373.73 453.00,410.29 453.00,411.89 C453.00,413.52 481.64,413.41 483.39,411.78 ZM 512.25 660.03 C507.98,658.09 507.24,656.75 508.96,654.03 C509.77,652.75 510.52,652.79 514.77,654.32 C519.88,656.16 523.00,655.78 523.00,653.33 C523.00,652.54 523.40,652.13 523.90,652.44 C524.39,652.74 525.04,652.33 525.35,651.53 C526.13,649.51 524.25,648.54 519.34,648.42 C516.07,648.34 514.63,647.70 512.62,645.41 C506.19,638.09 512.64,630.38 523.32,632.62 C527.09,633.41 527.53,633.82 527.81,636.75 C528.04,639.12 527.72,640.00 526.62,640.00 C525.79,640.00 524.84,639.55 524.50,639.00 C524.16,638.45 522.56,638.00 520.94,638.00 C518.50,638.00 518.00,638.41 518.00,640.42 C518.00,642.29 518.67,642.99 520.95,643.49 C524.73,644.32 528.89,647.59 530.05,650.63 C530.40,651.56 530.99,652.26 531.70,652.65 C530.56,652.43 530.19,652.84 530.28,654.11 C530.45,656.35 531.33,656.52 532.90,654.62 C533.61,653.77 533.65,653.33 532.88,652.99 C532.95,653.00 533.02,653.00 533.09,653.00 C534.27,653.00 537.43,653.78 540.12,654.74 L 545.01 656.47 L 547.50 653.78 C550.18,650.89 550.78,648.06 548.75,647.90 C548.06,647.85 545.79,647.89 543.70,647.98 C538.57,648.22 535.51,646.07 535.20,641.99 C534.83,637.19 535.78,635.16 539.25,633.37 C541.45,632.23 543.77,631.93 547.23,632.34 C549.53,632.61 550.92,632.63 551.73,632.34 C550.60,633.54 550.62,634.02 551.57,634.39 C552.35,634.69 553.82,634.11 554.90,633.10 C554.36,633.92 554.00,634.96 554.00,636.07 C554.00,639.61 551.85,640.79 548.58,639.04 C545.27,637.27 541.50,638.05 541.50,640.50 C541.50,642.07 542.57,642.76 546.50,643.72 C551.93,645.05 555.00,647.88 555.00,651.56 C555.00,658.30 549.03,662.68 541.39,661.54 C538.98,661.17 537.00,660.57 536.99,660.19 C536.99,659.81 535.58,658.70 533.85,657.71 C530.79,655.97 530.67,655.98 528.76,658.03 C524.71,662.37 518.95,663.07 512.25,660.03 ZM 575.66 659.83 C574.15,658.98 574.02,657.62 574.55,648.18 C574.88,642.31 575.56,636.60 576.06,635.50 C576.56,634.40 577.09,630.80 577.23,627.50 C577.43,622.99 577.87,621.50 578.98,621.50 C580.10,621.50 580.39,622.52 580.16,625.73 C579.68,632.26 580.57,634.11 583.62,632.96 C586.89,631.71 591.64,631.74 594.03,633.02 C595.08,633.58 597.08,635.98 598.47,638.36 C602.83,645.80 601.49,655.48 595.57,659.36 C592.74,661.22 578.73,661.55 575.66,659.83 ZM 793.74 659.54 C790.57,658.89 787.82,658.51 787.63,658.70 C787.44,658.89 786.66,658.28 785.89,657.33 C784.97,656.20 784.92,655.87 785.75,656.37 C787.50,657.42 787.32,655.87 785.00,650.00 C782.81,644.46 782.40,640.00 784.06,640.00 C784.64,640.00 784.88,639.62 784.59,639.15 C783.87,637.98 787.86,634.37 791.32,633.07 C792.86,632.48 795.90,632.00 798.07,632.00 C800.54,632.00 802.01,631.54 802.02,630.75 C802.02,630.08 802.20,629.97 802.58,630.43 C802.51,630.44 802.42,630.54 802.34,630.75 C802.06,631.44 801.08,632.01 800.17,632.02 C798.73,632.03 798.70,632.16 800.00,633.00 C802.31,634.49 803.01,634.20 802.92,631.75 C802.90,631.29 802.86,630.94 802.79,630.71 C802.84,630.78 802.89,630.86 802.95,630.95 C803.94,632.52 804.68,630.43 805.23,624.51 C805.40,622.59 806.13,621.40 807.25,621.19 C808.83,620.88 809.01,622.02 809.13,633.18 C809.20,639.95 809.32,648.57 809.38,652.33 C809.45,656.09 809.04,659.55 808.47,660.02 C807.08,661.18 800.74,660.97 793.74,659.54 ZM 659.00 660.06 C656.53,659.72 653.83,659.02 653.00,658.49 C652.17,657.96 651.20,657.52 650.83,657.52 C650.47,657.51 649.79,657.09 649.33,656.59 C648.85,656.06 649.02,655.98 649.75,656.40 C651.68,657.51 651.27,653.93 649.09,650.62 C647.43,648.10 647.14,647.98 646.71,649.62 C646.45,650.66 646.18,649.36 646.12,646.75 C646.04,643.73 646.43,642.00 647.17,642.00 C647.81,642.00 648.05,641.71 647.70,641.36 C646.68,640.35 650.89,635.11 654.03,633.48 C657.37,631.76 662.30,631.56 665.07,633.04 C666.57,633.84 667.00,633.74 667.00,632.58 C667.00,631.77 667.67,630.72 668.49,630.26 C670.15,629.34 670.68,625.46 669.53,622.75 C668.93,621.34 669.30,621.00 671.42,621.00 L 674.05 621.00 L 673.99 632.42 C673.94,624.96 673.60,621.13 673.00,621.50 C671.92,622.17 671.58,643.75 672.61,646.42 C672.94,647.29 673.39,648.00 673.61,648.00 C673.76,648.00 673.89,645.06 673.95,640.77 C673.87,659.73 673.82,660.00 671.68,660.37 C668.65,660.89 664.29,660.78 659.00,660.06 ZM 416.53 660.29 C417.76,659.35 417.79,658.00 416.61,656.14 C416.12,655.37 416.13,654.50 416.62,654.14 C417.10,653.79 417.50,653.05 417.50,652.50 C417.50,650.40 422.41,638.00 423.24,638.00 C423.72,638.00 423.84,637.55 423.50,636.99 C423.15,636.44 423.58,635.28 424.44,634.42 C425.83,633.02 426.46,630.91 426.12,628.75 C426.05,628.34 426.35,628.00 426.79,628.00 C427.22,628.00 427.65,627.03 427.74,625.84 C427.94,623.15 429.63,622.04 433.54,622.02 C436.24,622.00 436.81,622.54 438.54,626.74 C439.62,629.35 440.39,631.82 440.25,632.23 C439.93,633.21 443.14,641.35 444.11,642.01 C444.52,642.30 446.05,646.07 447.50,650.41 C449.88,657.51 449.99,658.44 448.60,659.83 C446.41,662.02 442.51,659.77 441.33,655.64 C440.43,652.50 440.42,652.50 432.71,652.21 C425.05,651.92 424.97,651.94 423.99,654.71 C422.29,659.51 421.39,660.49 418.40,660.79 C416.80,660.94 415.97,660.72 416.53,660.29 ZM 636.57 719.43 C635.36,718.21 635.00,715.63 635.00,708.04 C635.00,698.37 634.96,698.21 632.48,697.58 C631.09,697.24 629.14,697.39 628.15,697.92 C624.43,699.91 623.67,701.99 623.48,710.80 C623.32,718.20 623.03,719.55 621.54,719.84 C620.58,720.03 619.40,719.80 618.92,719.32 C617.56,717.96 616.69,705.68 617.46,698.53 L 618.16 692.00 L 627.38 692.00 C631.52,692.00 634.74,692.24 636.47,692.64 C636.67,692.90 636.98,693.27 637.40,693.77 C639.63,696.38 640.34,696.50 641.93,694.58 C642.90,693.41 642.74,693.25 641.05,693.70 C640.77,693.77 640.45,693.80 640.11,693.80 C640.81,693.72 641.69,693.51 642.83,693.17 C648.72,691.40 654.41,691.69 656.36,693.84 C658.19,695.87 660.86,715.32 659.71,718.31 C658.96,720.27 655.94,720.54 654.20,718.80 C653.44,718.04 653.00,714.24 653.00,708.50 C653.00,698.22 652.28,696.77 647.79,698.06 C643.04,699.42 642.07,701.57 642.03,710.71 C642.00,717.79 641.73,719.07 640.07,719.96 C638.61,720.74 637.75,720.61 636.57,719.43 ZM 457.50 718.65 C452.75,715.95 449.97,711.03 450.08,705.50 C450.12,703.30 450.39,702.07 450.67,702.77 C451.28,704.28 455.00,699.99 455.00,697.78 C455.00,697.01 455.92,695.39 457.04,694.19 C458.70,692.41 460.19,692.00 465.10,692.00 C470.60,692.00 471.37,692.28 474.14,695.25 C477.87,699.25 479.02,702.04 478.93,706.82 C478.83,711.79 476.15,716.04 471.42,718.73 C466.47,721.55 462.58,721.53 457.50,718.65 ZM 753.31 719.53 C748.98,717.65 742.86,708.00 746.00,708.00 C746.55,708.00 747.00,706.93 747.00,705.63 C747.00,702.08 749.82,694.67 751.72,693.25 C752.63,692.56 756.17,692.00 759.57,692.00 C764.95,692.00 765.99,692.28 768.46,694.76 C767.31,694.06 767.23,695.52 768.96,697.95 C770.01,699.42 771.18,701.94 771.57,703.56 C771.96,705.18 772.52,706.93 772.82,707.45 C773.00,707.76 773.21,707.85 773.39,707.76 C773.30,708.46 773.15,709.14 772.93,709.81 C770.02,718.92 761.55,723.12 753.31,719.53 ZM 686.15 660.89 C683.43,659.85 678.31,656.01 679.62,655.98 C680.10,655.98 679.89,655.58 679.14,655.11 C678.21,654.52 678.04,653.51 678.59,651.87 C679.03,650.57 679.32,649.22 679.24,648.87 C679.15,648.52 679.99,647.42 681.10,646.41 C682.47,645.17 685.17,644.46 689.56,644.18 C695.58,643.79 696.00,643.61 696.00,641.36 C696.00,638.13 691.67,636.34 688.62,638.31 C684.77,640.78 682.06,640.99 680.94,638.89 C679.61,636.40 680.46,635.12 684.59,633.40 C688.59,631.73 693.57,631.60 697.77,633.07 C698.17,633.21 698.54,633.38 698.90,633.58 C698.02,633.81 698.38,635.78 699.81,637.21 C700.46,637.86 701.01,640.00 701.02,641.95 C701.03,644.61 701.27,645.12 702.00,644.00 C702.67,642.96 703.04,645.08 703.19,651.00 L 703.40 659.15 C703.35,659.36 703.29,659.52 703.23,659.60 C702.27,661.05 689.16,662.04 686.15,660.89 ZM 554.00 719.70 C552.62,719.07 550.89,717.71 550.14,716.69 C549.38,715.67 547.47,713.51 545.89,711.88 C545.48,711.47 545.10,711.02 544.75,710.55 C544.84,710.56 544.94,710.54 545.03,710.48 C546.23,709.74 546.27,704.98 545.09,703.12 C544.88,702.78 544.66,702.62 544.46,702.62 C545.93,699.63 548.22,696.11 549.94,694.56 C552.77,691.99 559.60,690.71 563.52,692.01 C564.50,692.33 565.49,692.93 566.43,693.71 C566.38,694.39 567.01,696.19 568.35,699.22 C569.26,701.26 570.04,703.74 570.09,704.72 C570.13,705.70 570.57,705.16 571.06,703.53 C571.38,702.46 571.36,701.22 571.11,700.06 C571.68,701.35 572.06,702.68 572.17,703.93 C572.47,706.99 572.18,707.45 569.50,708.21 C567.85,708.69 563.36,708.94 559.52,708.79 C553.62,708.54 552.48,708.76 552.21,710.19 C552.00,711.26 552.99,712.46 554.89,713.44 C558.68,715.40 560.33,715.40 564.17,713.41 C566.75,712.08 567.47,712.04 568.59,713.17 C573.50,718.07 561.79,723.32 554.00,719.70 ZM 671.11 718.20 C669.25,717.27 667.75,716.05 667.79,715.50 C667.83,714.95 667.25,714.16 666.52,713.75 C664.55,712.65 663.65,705.59 664.97,701.61 C665.59,699.72 667.72,696.78 669.71,695.08 C672.68,692.55 674.19,692.00 678.23,692.00 C680.92,692.00 684.00,692.47 685.07,693.04 C687.22,694.19 689.33,698.62 690.37,704.16 C691.05,707.80 691.03,707.82 687.08,708.49 C684.90,708.86 681.17,709.08 678.80,708.99 C676.44,708.89 673.94,708.86 673.25,708.91 C671.23,709.06 671.81,711.76 674.22,713.44 C676.93,715.34 680.67,715.39 683.95,713.57 C685.30,712.83 686.98,712.44 687.70,712.71 C689.69,713.48 689.25,717.80 687.07,718.96 C684.11,720.55 674.91,720.11 671.11,718.20 ZM 484.76 659.43 C481.94,657.90 478.60,652.74 479.71,651.63 C480.05,651.28 479.81,651.00 479.17,651.00 C477.39,651.00 477.76,643.98 479.75,640.02 C481.94,635.66 487.30,632.00 491.50,632.00 C495.17,632.00 497.97,632.78 500.04,634.48 C499.34,635.00 499.46,635.78 500.44,637.30 C501.22,638.51 502.17,641.23 502.56,643.35 C502.94,645.47 503.57,646.69 503.95,646.08 C504.35,645.43 504.42,644.04 504.28,642.66 C504.34,642.99 504.40,643.33 504.46,643.67 C505.34,649.02 504.11,649.68 493.76,649.39 C489.50,649.27 485.80,649.52 485.54,649.94 C485.28,650.36 486.12,651.70 487.41,652.92 C489.69,655.06 490.68,655.21 499.00,654.71 C501.86,654.54 502.55,654.88 502.80,656.57 C503.00,657.99 502.28,659.01 500.50,659.82 C496.93,661.45 488.07,661.23 484.76,659.43 ZM 516.67 719.75 C515.14,718.63 514.98,716.48 515.23,699.50 L 515.50 680.50 L 518.50 680.50 C520.06,680.50 520.82,680.53 521.25,681.44 C521.16,681.43 521.07,681.46 520.97,681.52 C520.41,681.87 520.05,683.66 520.17,685.51 C520.43,689.38 521.66,689.08 521.94,685.82 C521.96,686.04 521.98,686.26 522.00,686.50 L 522.50 692.50 L 527.69 692.16 C530.54,691.98 533.84,692.13 535.03,692.51 C538.77,693.70 540.95,700.35 540.98,710.64 C541.00,719.94 540.49,721.16 536.67,720.93 C536.03,720.89 536.34,720.53 537.37,720.12 C538.97,719.49 539.05,719.17 537.87,717.91 C534.64,714.41 533.84,711.78 534.52,706.83 C535.35,700.80 533.44,698.00 528.50,698.00 C523.28,698.00 522.00,700.39 522.00,710.13 C522.00,720.17 520.63,722.64 516.67,719.75 ZM 427.68 719.03 C424.74,718.10 419.79,713.73 419.34,711.69 C419.19,711.03 418.63,708.70 418.09,706.50 C415.69,696.76 418.93,687.61 426.06,683.97 C431.71,681.09 441.54,681.24 445.33,684.28 L 448.16 686.54 L 446.08 688.43 C444.33,690.01 443.58,690.13 441.45,689.16 C435.34,686.38 427.77,688.92 425.42,694.53 C422.16,702.35 424.56,710.17 431.29,713.65 C434.20,715.15 434.80,715.14 439.64,713.50 C447.25,710.91 450.76,713.19 445.93,717.57 C443.57,719.69 432.55,720.58 427.68,719.03 ZM 823.57 660.19 C822.51,659.97 820.94,659.02 820.07,658.10 C818.97,656.91 818.79,656.87 819.48,657.95 C820.13,658.97 819.70,658.84 818.23,657.60 C815.95,655.64 815.21,654.39 817.00,655.50 C817.55,655.84 818.00,655.23 818.00,654.14 C818.00,653.06 817.56,652.02 817.02,651.83 C816.47,651.65 815.95,649.44 815.86,646.91 C815.65,641.19 819.08,634.62 823.17,632.93 C826.20,631.67 830.90,632.03 834.17,633.51 C833.42,633.59 833.70,635.04 835.47,637.15 C837.07,639.05 838.00,641.38 838.00,643.49 C838.00,645.33 838.56,647.03 839.25,647.28 C839.81,647.48 840.40,647.55 840.71,647.48 C840.67,647.67 840.61,647.83 840.53,647.95 C840.16,648.56 836.11,649.00 831.00,649.00 C826.11,649.00 821.86,649.42 821.54,649.94 C820.77,651.18 824.84,654.92 827.75,655.65 C829.01,655.97 831.41,655.66 833.09,654.96 C835.71,653.88 836.36,653.94 837.82,655.42 C839.40,657.02 839.35,657.25 837.09,659.11 C834.77,661.00 829.46,661.43 823.57,660.19 ZM 757.90 660.57 C757.67,660.33 754.93,660.00 751.83,659.83 C748.67,659.66 746.43,659.11 746.75,658.59 C747.07,658.08 746.62,657.93 745.76,658.26 C744.82,658.62 743.45,657.99 742.34,656.70 C740.95,655.06 740.90,654.85 742.16,655.82 C745.07,658.06 744.93,655.62 741.89,651.16 C740.27,648.79 739.41,647.13 739.97,647.48 C740.55,647.84 741.00,647.23 741.00,646.11 C741.00,644.20 741.99,641.22 744.26,636.32 C746.03,632.49 753.53,631.10 758.49,633.02 C758.02,633.08 758.23,633.50 759.00,634.00 C759.83,634.53 760.13,634.98 759.68,634.98 C759.22,634.99 759.79,636.19 760.93,637.63 C762.07,639.08 763.00,641.75 763.00,643.55 C763.00,645.36 763.56,647.03 764.25,647.28 C764.74,647.46 765.26,647.53 765.60,647.49 C765.54,647.75 765.45,647.95 765.32,648.08 C764.73,648.67 760.22,649.14 755.13,649.14 C750.11,649.14 746.00,649.48 746.00,649.90 C746.00,650.31 747.07,651.66 748.38,652.89 C750.71,655.08 753.47,655.51 760.50,654.80 C764.60,654.39 765.33,658.07 761.50,659.82 C758.58,661.15 758.50,661.17 757.90,660.57 ZM 774.40 567.91 C776.55,567.31 780.30,564.93 782.75,562.63 C786.36,559.21 787.21,557.74 787.29,554.75 C787.35,552.72 787.14,550.81 786.84,550.51 C786.53,550.20 781.73,549.93 776.15,549.91 C764.12,549.87 761.16,550.97 759.16,556.23 C757.33,561.05 758.88,565.20 763.34,567.39 C767.10,569.25 769.20,569.35 774.40,567.91 ZM 485.32 719.40 C484.98,718.51 484.66,712.10 484.60,705.15 L 484.50 692.51 L 494.19 692.26 C503.55,692.03 503.94,692.11 505.91,694.61 C508.17,697.49 508.68,699.92 509.37,711.26 C509.79,718.13 509.63,719.13 507.95,720.03 C506.60,720.75 505.46,720.68 504.02,719.78 C502.23,718.67 502.00,717.47 502.00,709.46 C502.00,699.43 501.32,698.00 496.50,698.00 C491.67,698.00 491.00,699.41 491.00,709.66 C491.00,717.80 490.76,719.06 489.07,719.96 C486.48,721.35 486.04,721.28 485.32,719.40 ZM 704.61 363.24 C701.63,362.25 699.53,360.91 699.24,359.81 C698.98,358.81 698.34,358.00 697.82,358.00 C697.31,358.00 697.11,357.62 697.40,357.16 C697.68,356.70 697.55,355.02 697.10,353.41 C695.46,347.52 700.97,342.00 708.50,342.00 C714.31,342.00 717.53,344.27 718.96,349.35 C720.55,355.03 719.56,359.47 716.17,361.86 C712.07,364.74 709.92,365.00 704.61,363.24 ZM 696.68 706.91 C696.34,699.66 696.29,693.34 696.59,692.86 C696.82,692.49 699.25,692.23 702.32,692.10 C701.49,692.31 701.00,692.86 701.00,693.62 C701.00,695.01 701.25,695.05 702.75,693.91 C703.71,693.17 704.69,692.44 704.92,692.28 C705.07,692.18 704.77,692.09 704.20,692.04 C708.84,691.93 714.12,692.11 715.46,692.62 C718.46,693.78 719.78,698.30 720.14,708.67 C720.33,714.27 720.17,719.16 719.79,719.54 C719.41,719.93 717.95,719.95 716.55,719.60 C714.04,718.97 714.00,718.80 714.00,709.55 C714.00,699.36 712.98,697.00 708.58,697.00 C704.34,697.00 703.12,699.77 702.80,710.03 C702.50,719.39 702.47,719.50 699.91,719.80 L 697.31 720.10 ZM 581.77 718.68 C579.72,717.48 577.33,715.49 576.47,714.27 C574.43,711.35 573.25,702.00 574.92,702.00 C575.58,702.00 575.86,701.58 575.54,701.06 C575.22,700.55 576.75,698.30 578.94,696.06 C582.69,692.23 583.26,692.00 588.74,692.00 C595.03,692.00 598.40,693.60 599.29,697.00 C599.37,697.32 599.44,697.59 599.46,697.81 C599.43,697.70 599.40,697.59 599.35,697.47 C598.90,696.30 598.45,696.21 597.38,697.10 C596.62,697.73 596.00,698.41 596.00,698.62 C596.00,698.65 596.01,698.68 596.04,698.70 C595.13,698.64 593.98,698.54 592.56,698.41 C585.70,697.79 585.20,697.88 583.64,700.10 C582.69,701.45 582.00,704.40 582.00,707.07 C582.00,711.30 582.28,711.84 585.43,713.53 C588.29,715.07 589.30,715.18 591.48,714.19 C596.59,711.86 599.74,713.08 598.52,716.93 C597.18,721.15 587.70,722.15 581.77,718.68 ZM 461.48 661.05 C460.37,660.60 457.95,658.82 456.10,657.10 C452.74,653.96 452.74,653.95 453.23,646.30 C453.68,639.29 453.99,638.40 456.82,635.87 C460.82,632.30 466.19,631.28 471.45,633.10 C474.35,634.10 475.59,635.14 475.82,636.75 C476.21,639.50 473.52,640.81 470.88,639.16 C463.56,634.59 455.59,644.86 460.56,652.45 C462.14,654.87 462.80,655.11 466.42,654.65 C468.66,654.36 471.62,653.98 473.00,653.81 C475.03,653.56 475.56,653.97 475.80,656.04 C476.04,658.10 475.41,658.91 472.51,660.29 C468.69,662.11 464.76,662.39 461.48,661.05 ZM 737.50 720.00 C739.31,719.22 739.26,719.13 736.92,719.07 C735.51,719.03 733.30,717.89 732.03,716.53 C730.75,715.17 729.32,714.30 728.85,714.59 C728.38,714.88 728.00,711.28 728.00,706.59 C728.00,699.09 727.76,697.94 726.00,697.00 C724.90,696.41 724.00,695.05 724.00,693.96 C724.00,692.67 724.68,692.00 726.00,692.00 C727.62,692.00 728.00,691.33 728.00,688.50 C728.00,685.28 728.24,685.00 731.00,685.00 C733.76,685.00 734.00,685.28 734.00,688.50 C734.00,691.49 734.34,692.00 736.31,692.00 C737.58,692.00 739.46,692.62 740.49,693.37 C742.30,694.69 742.29,694.77 740.25,695.87 C739.08,696.49 737.49,697.00 736.70,697.00 C735.64,697.00 735.13,698.87 734.74,704.25 C734.45,708.24 734.57,712.15 735.00,712.94 C735.44,713.74 737.30,714.41 739.13,714.44 C741.60,714.49 742.56,715.00 742.84,716.43 C743.28,718.69 740.52,721.03 737.56,720.93 C735.52,720.86 735.52,720.85 737.50,720.00 ZM 590.94 654.33 C592.26,653.41 593.01,653.18 592.61,653.82 C592.14,654.58 592.44,654.77 593.49,654.37 C595.64,653.54 598.12,647.32 597.41,644.50 C597.10,643.25 595.64,641.08 594.17,639.69 C591.79,637.42 591.03,637.24 587.13,637.96 C584.72,638.41 582.36,639.39 581.87,640.14 C581.38,640.89 581.10,644.42 581.24,647.99 C581.49,654.32 581.58,654.50 584.50,655.13 C586.15,655.48 587.74,655.82 588.03,655.88 C588.32,655.95 589.63,655.25 590.94,654.33 ZM 469.36 713.50 C472.50,712.78 475.74,707.00 473.00,707.00 C472.45,707.00 472.00,705.85 472.00,704.45 C472.00,701.46 467.92,697.00 465.18,697.00 C460.22,697.00 455.75,704.49 457.47,709.92 C458.31,712.56 462.88,715.14 465.50,714.45 C466.60,714.16 468.34,713.73 469.36,713.50 ZM 763.33 712.96 C768.42,708.95 767.29,698.86 761.59,697.43 C758.83,696.74 753.53,699.17 752.62,701.54 C751.20,705.24 752.01,710.10 754.45,712.55 C757.44,715.54 759.90,715.65 763.33,712.96 ZM 666.23 653.60 C667.67,651.46 667.08,641.22 665.43,639.57 C663.65,637.79 659.77,637.52 657.04,638.98 C653.64,640.80 651.74,649.93 654.25,652.34 C657.75,655.69 664.37,656.38 666.23,653.60 ZM 621.83 660.02 C621.65,659.49 621.91,650.49 622.40,640.02 C623.24,622.52 623.46,621.00 625.15,621.00 C626.65,621.00 627.01,621.81 627.06,625.25 C627.09,627.59 627.26,636.01 627.44,643.97 C627.62,651.93 627.55,659.01 627.28,659.72 C626.70,661.21 622.32,661.46 621.83,660.02 ZM 725.93 654.06 C727.86,652.84 728.69,641.54 727.00,639.50 C725.59,637.80 720.77,637.52 718.07,638.96 C715.02,640.59 713.62,645.33 714.98,649.43 C715.62,651.39 716.90,653.42 717.83,653.96 C719.94,655.20 724.06,655.25 725.93,654.06 ZM 800.37 653.93 C802.60,652.17 803.00,651.07 803.00,646.76 C803.00,640.84 801.06,638.00 797.02,638.00 C793.03,638.00 789.73,642.05 789.73,646.94 C789.73,651.24 791.18,653.72 794.47,655.05 C797.38,656.23 797.46,656.21 800.37,653.93 ZM 565.21 645.62 L 565.41 659.50 L 565.96 646.00 C566.26,638.58 566.13,631.97 565.68,631.31 C565.25,630.69 565.33,629.34 565.87,628.26 C565.41,629.79 565.46,630.86 566.01,631.41 C567.37,632.77 567.31,659.69 565.94,660.54 C565.36,660.89 563.79,660.91 562.44,660.58 C560.01,659.96 560.00,659.92 559.98,646.73 C559.98,639.77 559.62,633.46 559.17,632.28 C559.58,632.57 560.67,632.62 562.00,632.35 L 565.00 631.75 ZM 609.47 657.75 C609.45,655.96 609.07,650.90 608.64,646.50 C608.13,641.38 608.23,637.51 608.90,635.75 C609.75,633.52 609.67,633.00 608.48,633.00 C607.26,633.00 606.96,635.34 606.78,646.25 L 606.57 659.50 L 606.25 646.61 C606.00,636.20 606.23,633.41 607.45,632.06 C608.03,631.41 608.36,630.97 608.44,630.51 C608.51,630.89 608.48,631.19 608.34,631.33 C607.97,631.70 608.57,632.00 609.67,632.00 C610.85,632.00 612.16,630.95 612.84,629.45 C613.03,629.02 613.20,628.63 613.35,628.27 C613.32,628.34 613.30,628.41 613.27,628.47 C612.42,630.51 612.43,635.59 613.34,650.50 C613.81,658.30 613.11,661.00 610.63,661.00 C610.01,661.00 609.48,659.54 609.47,657.75 ZM 636.91 660.32 C636.85,659.87 636.88,655.45 636.95,650.50 C637.03,645.55 636.67,639.33 636.16,636.67 C635.82,634.92 635.66,633.72 635.69,632.91 C636.05,632.95 636.60,632.96 637.36,632.97 C639.54,632.99 640.07,632.63 639.62,631.45 C639.54,631.24 639.50,630.97 639.51,630.67 C639.63,631.23 639.96,631.81 640.50,632.64 C640.91,633.27 641.22,634.03 641.43,635.13 L 640.94 637.50 C640.49,639.70 640.16,644.65 640.21,648.50 L 640.30 655.50 L 641.04 649.00 C641.43,645.52 641.75,640.73 641.77,638.20 C641.88,640.40 641.87,643.44 641.78,647.76 C641.51,660.11 641.43,660.51 639.25,660.82 C638.01,661.00 636.96,660.77 636.91,660.32 ZM 437.54 643.50 C437.64,642.40 437.84,641.05 437.98,640.50 C438.58,638.16 437.92,636.82 436.45,637.38 C435.51,637.74 435.15,637.56 435.54,636.93 C435.90,636.36 435.90,634.74 435.55,633.34 L 434.91 630.79 L 432.58 633.50 C429.99,636.52 427.56,643.48 428.55,645.07 C428.90,645.64 431.02,645.97 433.26,645.80 C436.50,645.56 437.38,645.08 437.54,643.50 ZM 607.00 711.08 C607.00,705.69 606.60,703.01 605.75,702.66 C604.75,702.26 604.75,702.14 605.75,702.08 C607.62,701.96 607.27,695.96 605.26,693.74 C603.59,691.89 603.63,691.83 606.51,692.16 L 609.50 692.50 L 609.78 705.75 C610.02,717.09 609.84,719.00 608.53,719.00 C607.29,719.00 607.00,717.52 607.00,711.08 ZM 628.48 433.56 C629.96,435.50 631.62,436.74 632.23,436.36 C632.93,435.93 632.33,434.82 630.61,433.34 C629.11,432.05 628.09,431.00 628.35,431.00 C628.60,431.00 628.17,428.90 627.40,426.34 C626.63,423.78 626.00,419.56 626.00,416.97 C626.00,414.37 625.69,410.73 625.31,408.88 C624.64,405.62 624.60,405.59 623.91,408.00 C621.71,415.74 623.80,427.42 628.48,433.56 ZM 695.14 653.83 C696.98,650.98 695.58,649.51 690.83,649.30 C686.64,649.12 686.13,649.35 685.56,651.60 C685.22,652.97 685.24,654.57 685.60,655.16 C686.48,656.59 694.04,655.53 695.14,653.83 ZM 759.00 642.83 C759.00,640.70 755.73,638.00 753.16,638.00 C750.75,638.00 746.00,641.43 746.00,643.17 C746.00,643.63 748.92,644.00 752.50,644.00 C756.80,644.00 759.00,643.60 759.00,642.83 ZM 683.84 702.44 C684.03,702.28 683.89,701.24 683.54,700.13 C682.26,696.08 675.08,696.33 673.19,700.48 C672.61,701.75 672.38,703.04 672.67,703.34 C673.18,703.85 683.11,703.05 683.84,702.44 ZM 556.41 703.49 C557.51,702.65 559.31,702.29 560.66,702.63 C562.66,703.13 563.00,702.84 563.00,700.63 C563.00,695.85 555.59,696.16 552.98,701.04 C551.95,702.97 552.38,705.03 553.81,704.97 C554.19,704.95 555.36,704.29 556.41,703.49 ZM 497.28 643.39 C498.62,642.05 494.73,638.00 492.11,638.00 C489.56,638.00 486.00,640.92 486.00,643.01 C486.00,644.07 496.26,644.41 497.28,643.39 ZM 833.72 642.37 C834.28,640.66 831.16,638.00 828.60,638.00 C827.36,638.00 825.33,639.08 824.09,640.41 C821.97,642.66 821.94,642.85 823.66,643.32 C826.82,644.17 833.33,643.55 833.72,642.37 ZM 733.16 640.81 C733.30,657.04 733.41,658.32 734.05,650.50 C735.19,636.59 735.16,620.78 734.00,621.50 C733.38,621.88 733.06,629.25 733.16,640.81 ZM 603.96 687.40 C602.23,682.85 603.06,680.50 606.39,680.50 C610.64,680.50 611.97,683.22 609.41,686.65 C609.39,686.67 609.38,686.70 609.36,686.72 C609.26,686.48 608.53,686.56 607.00,686.79 C605.39,687.02 604.45,687.36 604.14,687.84 C604.08,687.70 604.02,687.55 603.96,687.40 ZM 634.33 626.49 C633.74,624.76 634.17,622.98 635.62,621.52 C637.58,619.57 639.89,619.87 641.39,622.27 C642.09,623.38 642.12,624.33 641.36,625.94 C641.72,624.95 641.86,623.94 641.70,623.30 C641.31,621.81 641.21,621.87 641.12,623.63 C640.94,626.91 638.30,628.67 635.86,627.14 C634.84,626.51 634.37,626.25 634.33,626.49 ZM 561.95 625.91 C561.34,624.77 560.59,624.07 560.30,624.37 C559.67,624.99 560.27,626.74 561.12,627.56 C560.84,627.39 560.60,627.16 560.42,626.87 C559.94,626.10 559.43,626.26 558.81,627.37 C558.31,628.27 557.31,629.00 556.60,629.00 C556.51,629.00 556.40,629.02 556.28,629.05 C558.05,628.39 559.00,627.37 559.00,626.13 C559.00,622.43 560.15,621.00 563.14,621.00 C566.02,621.00 567.25,622.41 566.80,625.14 C566.64,625.18 566.34,625.52 565.92,626.25 C565.20,627.49 563.64,628.09 562.31,627.95 C562.72,627.77 562.60,627.12 561.95,625.91 ZM 606.45 626.39 C605.47,623.75 606.53,621.50 609.25,621.18 C611.48,620.93 612.20,621.40 613.06,623.66 C613.29,624.26 613.44,624.90 613.53,625.53 C613.19,625.56 612.66,625.90 611.94,626.55 C610.22,628.11 609.56,628.21 607.90,627.17 C607.08,626.66 606.61,626.38 606.45,626.39 ZM 563.07 637.55 C564.54,636.05 564.15,633.00 562.50,633.00 C561.31,633.00 561.03,634.29 561.16,639.25 C561.26,643.16 561.47,644.19 561.73,642.00 C561.96,640.08 562.56,638.07 563.07,637.55 ZM 605.84 555.90 C606.15,558.96 606.59,560.26 607.27,561.29 C608.23,562.76 610.02,564.14 612.10,565.18 C611.91,565.22 611.70,565.29 611.47,565.37 C609.83,566.00 606.95,563.26 606.14,560.29 C606.05,559.97 605.95,558.38 605.84,555.90 ZM 623.00 693.62 C623.00,695.01 623.25,695.05 624.75,693.91 C625.71,693.17 626.69,692.44 626.92,692.28 C627.15,692.13 626.36,692.00 625.17,692.00 C623.83,692.00 623.00,692.63 623.00,693.62 ZM 563.00 700.94 C563.00,702.07 563.45,703.00 564.00,703.00 C564.55,703.00 565.00,702.35 565.00,701.56 C565.00,700.77 564.55,699.84 564.00,699.50 C563.45,699.16 563.00,699.81 563.00,700.94 ZM 516.00 640.56 C516.00,641.35 516.45,642.00 517.00,642.00 C517.55,642.00 518.00,641.07 518.00,639.94 C518.00,638.81 517.55,638.16 517.00,638.50 C516.45,638.84 516.00,639.77 516.00,640.56 ZM 702.65 638.77 C703.57,641.54 703.99,645.33 703.98,650.27 C703.98,654.06 703.74,657.62 703.43,659.03 L 703.75 651.01 C703.94,646.26 703.51,641.93 702.65,638.77 ZM 470.10 711.30 C470.83,710.08 471.64,709.31 471.90,709.57 C472.17,709.83 471.57,710.82 470.58,711.77 C468.86,713.42 468.84,713.40 470.10,711.30 ZM 591.87 639.25 C590.63,637.66 590.66,637.63 592.25,638.87 C593.21,639.63 594.00,640.41 594.00,640.62 C594.00,641.45 593.18,640.92 591.87,639.25 ZM 732.00 569.62 C732.00,570.45 731.18,569.92 729.87,568.25 C728.63,566.66 728.66,566.63 730.25,567.87 C731.21,568.63 732.00,569.41 732.00,569.62 ZM 726.62 562.48 L 728.01 564.03 C729.07,565.21 730.05,566.42 730.86,567.52 C730.60,567.27 730.31,567.00 730.00,566.72 C728.08,564.99 726.59,563.27 726.71,562.90 C726.74,562.81 726.71,562.66 726.62,562.48 ZM 500.55 634.92 C501.75,636.06 502.67,637.53 503.37,639.39 C503.20,639.14 503.02,639.00 502.83,639.00 C502.31,639.00 502.13,638.60 502.44,638.10 C502.74,637.61 502.29,636.94 501.43,636.61 C500.59,636.29 500.22,635.56 500.55,634.92 ZM 796.79 512.35 C799.90,515.13 801.75,517.11 802.86,520.55 C802.69,520.18 802.51,519.82 802.30,519.43 C801.06,517.09 799.01,514.55 796.79,512.35 ZM 761.10 634.59 C762.41,635.80 763.82,638.85 764.73,641.77 C764.00,639.76 763.16,638.00 762.70,638.00 C762.13,638.00 761.97,637.70 762.34,637.33 C762.78,636.88 762.08,635.63 761.10,634.59 ZM 567.58 694.78 C568.03,695.24 568.46,695.75 568.87,696.27 C568.56,696.10 568.24,696.00 567.92,696.00 C567.35,696.00 567.14,695.58 567.46,695.07 C567.51,694.98 567.56,694.88 567.58,694.78 ZM 559.00 631.98 C558.53,631.36 557.89,631.17 557.23,631.30 C558.28,630.80 559.00,630.99 559.00,631.97 L 559.00 631.98 ZM 552.67 631.43 C553.03,630.71 554.39,629.76 555.84,629.21 C554.98,629.59 553.74,630.43 552.69,631.41 C552.68,631.42 552.68,631.42 552.67,631.43 ZM 771.13 698.09 C772.10,699.67 772.79,701.36 773.17,703.06 C772.66,701.40 771.92,699.57 771.13,698.09 ZM 837.18 635.79 C838.29,637.31 839.39,639.94 840.08,642.40 C839.28,639.91 838.13,637.16 837.18,635.79 ZM 637.14 630.86 C637.22,630.62 637.10,630.31 636.79,629.89 C636.95,629.96 637.09,630.00 637.23,630.00 C637.69,630.00 637.63,630.35 637.14,630.86 ZM 543.35 708.23 C543.13,707.71 543.00,707.25 543.00,706.89 C543.00,706.59 543.07,706.21 543.19,705.76 C543.14,706.55 543.19,707.41 543.35,708.23 ZM 486.11 363.79 C487.01,366.14 487.96,368.62 488.90,371.12 C490.59,375.60 492.45,380.51 494.40,385.61 C491.20,377.25 488.27,369.53 486.11,363.79 ZM 507.95 420.78 C510.97,428.54 513.57,435.14 515.25,439.33 C514.09,436.50 511.36,429.55 507.95,420.78 ZM 636.44 631.47 C636.25,631.61 636.08,631.74 635.93,631.86 C636.07,631.61 636.27,631.45 636.54,631.35 C636.58,631.33 636.62,631.31 636.66,631.30 C636.59,631.35 636.52,631.41 636.44,631.47 ZM 637.20 692.85 C637.47,692.95 637.66,693.06 637.77,693.17 C637.80,693.20 637.84,693.24 637.88,693.27 C637.65,693.16 637.43,693.03 637.24,692.89 C637.23,692.87 637.22,692.86 637.20,692.85 Z" fill="rgba(22,44,72,1)"/>
<path d="M 254.10 308.10 C256.67,308.30 258.87,308.57 260.50,308.89 C290.15,314.77 318.97,334.06 335.19,358.88 C349.48,380.73 356.00,402.39 356.00,427.98 C356.00,435.97 355.61,442.38 354.60,448.58 C354.85,446.80 354.93,445.26 354.90,443.74 C354.82,440.38 354.51,441.19 353.43,447.64 C351.85,457.04 346.88,472.90 343.91,478.00 C342.79,479.92 342.18,480.60 342.55,479.50 C342.92,478.40 344.76,473.06 346.63,467.63 C351.27,454.17 353.01,443.19 352.97,427.62 C352.92,412.43 351.47,403.27 346.98,390.00 C339.55,368.04 326.02,347.98 309.48,334.43 C306.99,332.39 305.17,330.49 305.45,330.22 C305.73,329.94 306.64,330.28 307.48,330.98 C308.31,331.68 309.00,332.00 309.00,331.69 C309.00,331.39 307.54,330.11 305.75,328.86 C303.59,327.35 302.96,327.15 303.87,328.29 C305.88,330.80 304.67,330.41 298.77,326.64 C290.49,321.35 283.71,318.19 272.86,314.55 C267.25,312.67 263.63,311.00 264.66,310.77 C265.67,310.54 263.80,309.73 260.50,308.95 C259.00,308.60 256.78,308.32 254.10,308.10 ZM 515.60 446.75 C509.20,432.11 477.05,347.68 477.63,347.06 C478.69,345.94 481.11,350.32 484.51,359.50 C491.21,377.57 512.78,433.54 515.57,440.09 C517.98,445.75 519.40,452.00 518.28,452.00 C518.07,452.00 516.86,449.64 515.60,446.75 ZM 218.05 524.05 C216.69,523.80 215.41,523.47 213.99,523.06 C210.42,522.00 206.82,521.18 205.99,521.23 C205.17,521.28 203.60,521.24 202.50,521.14 C200.81,521.00 200.73,520.81 202.00,519.92 C203.18,519.09 203.04,519.00 201.32,519.48 C199.87,519.88 196.74,518.89 192.07,516.53 C184.98,512.97 183.04,511.33 187.25,512.48 C189.20,513.01 189.27,512.95 187.74,511.99 C186.78,511.39 185.53,511.17 184.97,511.52 C183.33,512.53 171.86,503.71 164.40,495.70 C151.74,482.08 142.69,463.68 139.40,444.85 C137.47,433.82 138.01,414.47 140.46,406.50 C141.92,401.74 141.97,401.69 141.47,405.50 C138.38,429.02 138.80,439.18 143.52,455.49 C146.26,464.92 153.29,479.51 157.52,484.50 C158.92,486.16 157.99,484.02 155.42,479.70 C150.94,472.16 147.21,462.81 144.67,453.22 C147.28,462.35 151.46,472.47 155.80,479.77 C160.57,487.78 172.60,501.92 176.34,503.92 C177.80,504.70 179.00,505.71 179.00,506.17 C179.00,506.63 179.42,507.00 179.93,507.00 C180.44,507.00 183.48,508.71 186.68,510.80 C193.81,515.46 203.07,519.65 213.00,522.70 C214.93,523.29 216.48,523.73 218.05,524.05 ZM 328.92 518.84 C328.96,518.92 329.00,519.01 329.05,519.09 C330.13,521.21 333.59,525.54 336.75,528.73 C350.98,543.07 376.08,570.03 378.42,573.48 C385.20,583.47 378.20,597.52 366.51,598.87 C369.16,598.52 371.63,597.60 373.68,596.12 C380.62,591.09 383.06,581.85 379.14,575.50 C377.57,572.97 349.52,542.42 336.97,529.59 L 333.15 525.68 L 322.06 535.49 C312.97,543.53 311.34,545.24 312.13,546.57 L 311.26 545.50 L 314.13 541.86 C317.51,537.57 317.55,537.36 315.20,536.11 C313.94,535.43 312.41,535.63 310.08,536.76 L 306.75 538.37 L 303.97 534.97 L 301.21 531.59 L 304.05 535.04 C306.70,538.26 307.05,538.40 309.20,537.10 C313.73,534.35 329.00,520.59 329.00,519.26 C329.00,519.14 328.97,519.00 328.92,518.84 ZM 803.61 579.12 C803.12,578.36 802.52,566.21 802.27,552.12 C802.02,538.03 801.38,524.77 800.85,522.66 C799.71,518.17 793.26,510.77 788.92,508.97 C787.01,508.18 786.24,507.36 786.84,506.76 C788.89,504.71 798.80,512.83 802.30,519.43 C804.31,523.21 804.49,525.20 804.81,547.50 C805.20,574.56 804.95,581.20 803.61,579.12 ZM 204.23 471.52 L 204.50 434.05 L 172.50 433.45 L 189.25 433.22 L 206.00 433.00 L 206.00 471.00 C206.00,496.25 205.66,509.00 204.98,509.00 C204.29,509.00 204.04,496.60 204.23,471.52 ZM 606.90 563.89 C605.29,562.17 603.78,559.81 603.53,558.63 C603.28,557.46 602.94,545.36 602.77,531.75 C602.54,512.80 602.76,507.00 603.69,507.00 C604.60,507.00 605.00,513.39 605.28,532.75 C605.48,546.91 605.87,559.31 606.14,560.29 C606.95,563.26 609.83,566.00 611.47,565.37 C612.31,565.05 613.00,565.01 613.00,565.29 C613.00,565.56 612.28,566.06 611.41,566.40 C610.38,566.79 608.76,565.89 606.90,563.89 ZM 379.95 581.00 C379.93,582.38 379.33,584.85 378.63,586.50 C377.43,589.29 377.37,589.08 377.78,583.43 L 378.21 577.35 L 367.67 565.93 C361.87,559.64 351.71,548.65 345.08,541.50 C338.45,534.35 333.03,528.05 333.02,527.50 C333.01,526.95 337.62,531.45 343.25,537.49 C348.89,543.54 358.64,553.89 364.91,560.49 C377.37,573.60 380.01,577.21 379.95,581.00 ZM 565.21 645.62 L 565.00 631.75 L 562.00 632.35 C560.31,632.69 559.00,632.53 559.00,631.97 C559.00,630.39 557.14,630.86 555.02,632.98 C553.94,634.06 552.38,634.70 551.57,634.39 C550.40,633.94 550.64,633.32 552.69,631.41 C554.12,630.08 555.88,629.00 556.60,629.00 C557.31,629.00 558.31,628.27 558.81,627.37 C559.43,626.26 559.94,626.10 560.42,626.87 C561.48,628.59 564.77,628.22 565.92,626.25 C567.28,623.91 567.29,625.59 565.93,628.13 C565.34,629.23 565.23,630.66 565.68,631.31 C566.13,631.97 566.26,638.58 565.96,646.00 L 565.41 659.50 ZM 628.48 433.56 C623.80,427.42 621.71,415.74 623.91,408.00 C624.60,405.59 624.64,405.62 625.31,408.88 C625.69,410.73 626.00,414.37 626.00,416.97 C626.00,419.56 626.63,423.78 627.40,426.34 C628.17,428.90 628.60,431.00 628.35,431.00 C628.09,431.00 629.11,432.05 630.61,433.34 C632.33,434.82 632.93,435.93 632.23,436.36 C631.62,436.74 629.96,435.50 628.48,433.56 ZM 592.38 404.50 C592.41,383.00 592.52,381.10 592.99,393.50 L 593.55 408.50 L 594.06 393.50 C594.54,379.03 594.57,379.29 594.78,400.81 C594.92,414.56 594.64,422.89 594.06,422.54 C593.54,422.22 592.94,423.88 592.73,426.23 C592.52,428.58 592.36,418.80 592.38,404.50 ZM 755.00 365.78 C755.00,356.86 755.26,355.00 756.50,355.00 C757.73,355.00 758.00,356.76 758.00,364.80 C758.00,371.12 758.43,375.03 759.21,375.81 C760.15,376.75 759.82,376.96 757.71,376.79 L 755.00 376.56 ZM 672.61 646.42 C671.58,643.75 671.92,622.17 673.00,621.50 C673.65,621.10 674.00,625.66 674.00,634.44 C674.00,641.90 673.82,648.00 673.61,648.00 C673.39,648.00 672.94,647.29 672.61,646.42 ZM 733.16 640.81 C733.06,629.25 733.38,621.88 734.00,621.50 C735.16,620.78 735.19,636.59 734.05,650.50 C733.41,658.32 733.30,657.04 733.16,640.81 ZM 839.25 647.28 C838.56,647.03 838.00,645.33 838.00,643.49 C838.00,641.38 837.07,639.05 835.47,637.15 C832.54,633.66 833.71,631.99 836.78,635.28 C838.65,637.28 841.80,646.61 840.88,647.40 C840.67,647.58 839.94,647.53 839.25,647.28 ZM 703.19 651.00 C703.04,645.08 702.67,642.96 702.00,644.00 C701.27,645.12 701.03,644.61 701.02,641.95 C701.01,640.00 700.46,637.86 699.81,637.21 C698.10,635.50 697.92,633.03 699.55,633.66 C702.31,634.72 704.10,642.13 703.75,651.01 L 703.41 659.50 ZM 726.84 566.03 C724.33,562.74 721.98,560.27 721.63,560.52 C721.27,560.78 721.43,560.46 721.97,559.82 C722.70,558.94 723.46,559.10 724.94,560.44 C726.03,561.43 726.83,562.54 726.71,562.90 C726.59,563.27 728.08,564.99 730.00,566.72 C732.45,568.92 733.19,570.19 732.45,570.93 C731.72,571.67 730.04,570.21 726.84,566.03 ZM 764.25 647.28 C763.56,647.03 763.00,645.36 763.00,643.55 C763.00,641.75 762.07,639.08 760.93,637.63 C759.79,636.19 759.22,634.99 759.68,634.98 C760.13,634.98 759.83,634.53 759.00,634.00 C758.17,633.47 757.99,633.02 758.60,633.02 C760.11,632.99 763.16,636.51 762.34,637.33 C761.97,637.70 762.13,638.00 762.70,638.00 C763.71,638.00 766.67,646.72 765.89,647.39 C765.67,647.58 764.94,647.53 764.25,647.28 ZM 636.44 631.47 C637.51,630.66 637.86,630.00 637.23,630.00 C636.59,630.00 635.58,629.08 634.98,627.95 C633.97,626.08 634.05,626.01 635.86,627.14 C638.30,628.67 640.94,626.91 641.12,623.63 C641.21,621.87 641.31,621.81 641.70,623.30 C641.96,624.29 641.46,626.18 640.59,627.50 C639.73,628.82 639.29,630.59 639.62,631.45 C640.07,632.63 639.54,632.99 637.36,632.97 C634.63,632.94 634.59,632.87 636.44,631.47 ZM 608.34 631.33 C608.71,630.96 608.31,629.59 607.46,628.29 C605.97,626.02 605.98,625.97 607.90,627.17 C609.56,628.21 610.22,628.11 611.94,626.55 C614.24,624.47 614.59,625.61 612.84,629.45 C612.16,630.95 610.85,632.00 609.67,632.00 C608.57,632.00 607.97,631.70 608.34,631.33 ZM 772.82 707.45 C772.52,706.93 771.96,705.18 771.57,703.56 C771.18,701.94 770.01,699.42 768.96,697.95 C766.64,694.69 767.57,693.18 769.99,696.28 C772.04,698.93 774.32,705.53 773.76,707.21 C773.54,707.88 773.13,707.99 772.82,707.45 ZM 570.09 704.72 C570.04,703.74 569.26,701.26 568.35,699.22 C566.29,694.57 565.91,692.83 567.10,693.56 C567.61,693.88 567.77,694.56 567.46,695.07 C567.14,695.58 567.35,696.00 567.92,696.00 C570.12,696.00 571.98,700.45 571.06,703.53 C570.57,705.16 570.13,705.70 570.09,704.72 ZM 502.56 643.35 C502.17,641.23 501.22,638.51 500.44,637.30 C499.40,635.70 499.33,634.91 500.17,634.40 C500.87,633.96 501.03,634.13 500.59,634.85 C500.19,635.50 500.56,636.28 501.43,636.61 C502.29,636.94 502.74,637.61 502.44,638.10 C502.13,638.60 502.31,639.00 502.83,639.00 C504.01,639.00 504.89,644.56 503.95,646.08 C503.57,646.69 502.94,645.47 502.56,643.35 ZM 543.44 708.61 C542.61,705.32 543.86,701.17 545.09,703.12 C546.27,704.98 546.23,709.74 545.03,710.48 C544.50,710.81 543.78,709.97 543.44,708.61 ZM 640.21 648.50 C640.16,644.65 640.49,639.70 640.94,637.50 L 641.77 633.50 L 641.77 638.00 C641.77,640.47 641.44,645.42 641.04,649.00 L 640.30 655.50 ZM 275.50 314.44 C284.93,317.90 287.71,318.64 284.70,316.89 C282.38,315.54 268.98,310.98 267.57,311.07 C266.98,311.10 270.55,312.62 275.50,314.44 ZM 800.86 627.69 C799.35,626.54 799.37,626.26 801.11,624.11 L 803.00 621.78 L 803.00 625.39 C803.00,627.62 803.02,628.61 802.68,628.76 C802.39,628.89 801.86,628.45 800.86,627.69 ZM 604.67 689.33 C603.34,688.01 604.06,687.22 607.00,686.79 C609.85,686.37 609.91,686.44 608.34,688.17 C606.57,690.13 605.73,690.39 604.67,689.33 ZM 520.17 685.51 C520.05,683.66 520.41,681.87 520.97,681.52 C521.60,681.13 522.00,682.24 522.00,684.38 C522.00,688.94 520.47,689.88 520.17,685.51 ZM 637.40 693.77 C635.87,691.96 635.84,691.79 637.24,692.89 C638.20,693.63 639.92,693.99 641.05,693.70 C642.74,693.25 642.90,693.41 641.93,694.58 C640.34,696.50 639.63,696.38 637.40,693.77 ZM 530.28 654.11 C530.18,652.71 530.64,652.35 532.09,652.73 C533.62,653.13 533.80,653.54 532.90,654.62 C531.33,656.52 530.45,656.35 530.28,654.11 ZM 800.00 633.00 C798.70,632.16 798.73,632.03 800.17,632.02 C801.08,632.01 802.06,631.44 802.34,630.75 C802.62,630.06 802.88,630.51 802.92,631.75 C803.01,634.20 802.31,634.49 800.00,633.00 ZM 596.00 698.62 C596.00,698.41 596.62,697.73 597.38,697.10 C598.45,696.21 598.90,696.30 599.35,697.47 C599.75,698.52 599.32,699.00 597.97,699.00 C596.89,699.00 596.00,698.83 596.00,698.62 ZM 623.00 693.62 C623.00,692.63 623.83,692.00 625.17,692.00 C626.36,692.00 627.15,692.13 626.92,692.28 C626.69,692.44 625.71,693.17 624.75,693.91 C623.25,695.05 623.00,695.01 623.00,693.62 ZM 701.00 693.62 C701.00,692.63 701.83,692.00 703.17,692.00 C704.36,692.00 705.15,692.13 704.92,692.28 C704.69,692.44 703.71,693.17 702.75,693.91 C701.25,695.05 701.00,695.01 701.00,693.62 ZM 563.00 700.94 C563.00,699.81 563.45,699.16 564.00,699.50 C564.55,699.84 565.00,700.77 565.00,701.56 C565.00,702.35 564.55,703.00 564.00,703.00 C563.45,703.00 563.00,702.07 563.00,700.94 ZM 516.00 640.56 C516.00,639.77 516.45,638.84 517.00,638.50 C517.55,638.16 518.00,638.81 518.00,639.94 C518.00,641.07 517.55,642.00 517.00,642.00 C516.45,642.00 516.00,641.35 516.00,640.56 ZM 210.06 545.85 C196.85,542.93 184.99,537.74 172.75,529.73 C183.96,537.06 197.08,542.71 210.06,545.85 ZM 180.87 508.34 C181.63,509.25 182.64,510.00 183.12,510.00 C184.65,510.00 184.08,509.11 181.75,507.87 C179.71,506.78 179.63,506.83 180.87,508.34 ZM 354.11 451.31 C353.07,456.67 351.54,462.02 349.36,468.28 C347.53,473.58 345.61,478.30 343.44,482.77 C345.63,478.17 347.55,473.29 349.28,467.98 C351.80,460.24 353.30,455.17 354.11,451.31 ZM 298.86 324.94 C301.16,326.95 302.00,327.40 302.00,326.62 C302.00,326.40 300.76,325.48 299.25,324.56 L 296.50 322.88 ZM 287.51 319.01 C287.84,319.56 288.54,320.00 289.06,320.00 C290.50,320.00 290.18,319.28 288.45,318.62 C287.56,318.28 287.16,318.44 287.51,319.01 ZM 732.00 569.62 C732.00,569.41 731.21,568.63 730.25,567.87 C728.66,566.63 728.63,566.66 729.87,568.25 C731.18,569.92 732.00,570.45 732.00,569.62 ZM 255.63 547.80 C250.16,548.79 246.37,549.04 239.12,548.87 C245.03,548.86 250.42,548.53 255.63,547.80 ZM 348.88 591.63 C347.05,589.67 344.90,587.14 342.29,583.91 C337.22,577.63 328.17,566.42 322.17,559.00 L 312.86 547.48 C314.39,549.31 318.65,554.56 323.14,560.14 C337.77,578.34 344.86,587.12 348.88,591.63 ZM 297.14 533.50 L 291.35 536.27 C283.73,539.90 278.43,542.11 272.49,543.89 C278.10,542.08 283.92,539.70 290.36,536.68 L 297.14 533.50 ZM 142.02 440.43 C141.36,435.96 141.01,431.60 141.01,427.50 C141.01,423.56 141.25,419.66 141.74,415.80 C140.78,423.74 140.89,431.86 142.02,440.43 ZM 332.81 500.41 C332.23,501.23 331.62,502.05 331.00,502.88 C328.30,506.51 325.94,509.87 324.78,511.72 C325.54,509.99 327.80,507.07 332.37,501.00 C332.52,500.80 332.67,500.61 332.81,500.41 ZM 325.44 514.61 C325.48,514.63 325.51,514.64 325.54,514.65 C326.10,514.87 326.99,515.82 327.83,517.05 C327.41,516.52 326.91,515.97 326.37,515.47 C326.02,515.15 325.71,514.87 325.44,514.61 Z" fill="rgba(168,165,159,1)"/>
<path d="M 355.50 597.14 C351.48,595.31 350.80,594.53 323.14,560.14 C317.99,553.74 313.14,547.78 312.37,546.90 C311.12,545.48 312.22,544.20 322.06,535.49 L 333.15 525.68 L 336.97 529.59 C349.52,542.42 377.57,572.97 379.14,575.50 C383.06,581.85 380.62,591.09 373.68,596.12 C368.88,599.59 361.77,599.99 355.50,597.14 ZM 379.95 581.00 C380.01,577.21 377.37,573.60 364.91,560.49 C358.64,553.89 348.89,543.54 343.25,537.49 C337.62,531.45 333.01,526.95 333.02,527.50 C333.03,528.05 338.45,534.35 345.08,541.50 C351.71,548.65 361.87,559.64 367.67,565.93 L 378.21 577.35 L 377.78 583.43 C377.37,589.08 377.43,589.29 378.63,586.50 C379.33,584.85 379.93,582.38 379.95,581.00 ZM 222.50 548.37 C221.40,548.16 218.02,547.50 215.00,546.92 C200.44,544.12 185.38,537.99 172.75,529.73 C137.34,506.57 118.02,470.84 118.01,428.50 C118.01,404.12 126.20,378.12 140.37,357.50 C145.81,349.59 161.94,333.45 169.56,328.29 C183.06,319.15 200.91,311.76 216.66,308.81 C225.95,307.06 252.83,307.15 260.50,308.95 C263.80,309.73 265.67,310.54 264.66,310.77 C263.63,311.00 267.25,312.67 272.86,314.55 C283.71,318.19 290.49,321.35 298.77,326.64 C304.67,330.41 305.88,330.80 303.87,328.29 C302.96,327.15 303.59,327.35 305.75,328.86 C307.54,330.11 309.00,331.39 309.00,331.69 C309.00,332.00 308.31,331.68 307.48,330.98 C306.64,330.28 305.73,329.94 305.45,330.22 C305.17,330.49 306.99,332.39 309.48,334.43 C326.02,347.98 339.55,368.04 346.98,390.00 C351.47,403.27 352.92,412.43 352.97,427.62 C353.01,443.19 351.27,454.17 346.63,467.63 C344.76,473.06 342.92,478.40 342.55,479.50 C342.18,480.60 342.79,479.92 343.91,478.00 C346.88,472.90 351.85,457.04 353.43,447.64 C354.51,441.19 354.82,440.38 354.90,443.74 C355.02,448.84 353.79,454.13 349.28,467.98 C345.10,480.81 339.82,491.12 332.37,501.00 C323.02,513.41 323.33,512.65 326.37,515.47 C327.82,516.81 329.00,518.51 329.00,519.26 C329.00,520.59 313.73,534.35 309.20,537.10 C307.05,538.40 306.70,538.26 304.05,535.04 L 301.21 531.59 L 290.36 536.68 C270.86,545.84 257.05,549.02 237.50,548.87 C230.35,548.81 223.60,548.59 222.50,548.37 ZM 262.84 521.61 C297.11,511.99 322.43,485.05 330.64,449.50 C333.34,437.78 333.12,416.53 330.18,404.64 C322.59,373.99 301.92,349.54 273.56,337.67 C261.13,332.46 251.73,330.67 237.00,330.68 C201.16,330.73 169.23,349.92 152.96,381.20 C144.88,396.72 141.01,411.73 141.01,427.50 C141.01,444.14 146.84,465.24 155.42,479.70 C157.99,484.02 158.92,486.16 157.52,484.50 C153.29,479.51 146.26,464.92 143.52,455.49 C138.80,439.18 138.38,429.02 141.47,405.50 C141.97,401.69 141.92,401.74 140.46,406.50 C138.01,414.47 137.47,433.82 139.40,444.85 C142.69,463.68 151.74,482.08 164.40,495.70 C171.86,503.71 183.33,512.53 184.97,511.52 C185.53,511.17 186.78,511.39 187.74,511.99 C189.27,512.95 189.20,513.01 187.25,512.48 C183.04,511.33 184.98,512.97 192.07,516.53 C196.74,518.89 199.87,519.88 201.32,519.48 C203.04,519.00 203.18,519.09 202.00,519.92 C200.73,520.81 200.81,521.00 202.50,521.14 C203.60,521.24 205.17,521.28 205.99,521.23 C206.82,521.18 210.42,522.00 213.99,523.06 C219.54,524.69 222.94,524.92 237.00,524.60 C251.04,524.29 254.90,523.84 262.84,521.61 ZM 298.86 324.94 L 296.50 322.88 L 299.25 324.56 C300.76,325.48 302.00,326.40 302.00,326.62 C302.00,327.40 301.16,326.95 298.86,324.94 ZM 287.51 319.01 C287.16,318.44 287.56,318.28 288.45,318.62 C290.18,319.28 290.50,320.00 289.06,320.00 C288.54,320.00 287.84,319.56 287.51,319.01 ZM 275.50 314.44 C270.55,312.62 266.98,311.10 267.57,311.07 C268.98,310.98 282.38,315.54 284.70,316.89 C287.71,318.64 284.93,317.90 275.50,314.44 ZM 180.87 508.34 C179.63,506.83 179.71,506.78 181.75,507.87 C184.08,509.11 184.65,510.00 183.12,510.00 C182.64,510.00 181.63,509.25 180.87,508.34 Z" fill="rgba(211,162,44,1)"/>
</g>
</svg>